<svg width="460" height="639" viewBox="0 0 460 639" fill="none" xmlns="http://www.w3.org/2000/svg">
<path d="M0 230C0 102.975 102.975 0 230 0C357.025 0 460 102.975 460 230V619C460 628.428 460 633.142 457.071 636.071C454.142 639 449.428 639 440 639H20C10.5719 639 5.85786 639 2.92893 636.071C0 633.142 0 628.428 0 619V230Z" fill="#D9D389"/>
<path d="M51.4207 30.6314C56.1728 30.2521 60.6843 28.3836 64.3129 25.2917C68.4132 21.7954 73.6253 19.875 79.0138 19.875C84.4023 19.875 89.6144 21.7954 93.7147 25.2917C97.3433 28.3836 101.855 30.2521 106.607 30.6314C111.978 31.0587 117.021 33.3862 120.831 37.1963C124.641 41.0063 126.969 46.0494 127.396 51.4207C127.775 56.1728 129.644 60.6843 132.736 64.3129C136.232 68.4132 138.153 73.6253 138.153 79.0138C138.153 84.4023 136.232 89.6144 132.736 93.7147C129.644 97.3433 127.775 101.855 127.396 106.607C126.969 111.978 124.641 117.021 120.831 120.831C117.021 124.641 111.978 126.969 106.607 127.396C101.855 127.775 97.3433 129.644 93.7147 132.736C89.6144 136.232 84.4023 138.153 79.0138 138.153C73.6253 138.153 68.4132 136.232 64.3129 132.736C60.6843 129.644 56.1728 127.775 51.4207 127.396C46.0494 126.969 41.0063 124.641 37.1963 120.831C33.3862 117.021 31.0587 111.978 30.6314 106.607C30.2521 101.855 28.3836 97.3433 25.2917 93.7147C21.7954 89.6144 19.875 84.4023 19.875 79.0138C19.875 73.6253 21.7954 68.4132 25.2917 64.3129C28.3836 60.6843 30.2521 56.1728 30.6314 51.4207C31.0587 46.0494 33.3862 41.0063 37.1963 37.1963C41.0063 33.3862 46.0494 31.0587 51.4207 30.6314Z" fill="#D9D389" stroke="#0F2615" stroke-width="9.03409" stroke-linecap="round" stroke-linejoin="round"/>
<path d="M55.9208 58.0942C57.5903 58.0942 58.9129 58.4519 59.8886 59.1674C60.8643 59.8829 61.3521 60.902 61.3521 62.2246C61.3521 63.0702 61.1353 63.8399 60.7016 64.5337C60.2897 65.2275 59.7368 65.8888 59.043 66.5176C58.3492 67.1247 57.6011 67.6992 56.7989 68.2413C56.0184 68.7833 55.2595 69.3254 54.5223 69.8674C53.7851 70.3878 53.1564 70.9298 52.636 71.4936H59.6609C60.5499 71.4936 61.1136 71.3852 61.3521 71.1683C61.5906 70.9515 61.7532 70.5721 61.8399 70.03H62.5229C62.5229 71.4827 62.5338 72.6102 62.5554 73.4124C62.5771 74.2146 62.6096 74.9193 62.653 75.5264C62.4579 75.483 62.1001 75.4505 61.5798 75.4288C61.0594 75.4071 60.4631 75.3855 59.791 75.3638C59.1189 75.3638 58.4576 75.3638 57.8071 75.3638H48.343V74.7458C48.9501 74.0954 49.6981 73.3799 50.5871 72.5993C51.476 71.8188 52.3433 70.9515 53.1889 69.9975C54.0562 69.0435 54.7825 68.0136 55.3679 66.9079C55.9533 65.7804 56.246 64.5771 56.246 63.2978C56.246 62.127 55.9858 61.2814 55.4655 60.7611C54.9451 60.2407 54.1971 59.9805 53.2214 59.9805C52.2891 59.9805 51.4652 60.1973 50.7497 60.631C50.0559 61.0429 49.4271 61.6609 48.8634 62.4848L48.3105 62.1595C48.7441 61.4224 49.2862 60.7502 49.9366 60.1431C50.6088 59.5144 51.4327 59.0157 52.4083 58.6471C53.384 58.2785 54.5548 58.0942 55.9208 58.0942ZM74.6681 58.0942C76.4027 58.0942 77.9312 58.4519 79.2538 59.1674C80.5764 59.8613 81.6171 60.8586 82.376 62.1595C83.1349 63.4388 83.5143 64.9457 83.5143 66.6802C83.5143 68.4147 83.124 69.9758 82.3435 71.3635C81.5846 72.7294 80.5114 73.8135 79.1237 74.6157C77.7578 75.418 76.1533 75.8191 74.3104 75.8191C72.6192 75.8191 71.1015 75.4613 69.7572 74.7458C68.4346 74.0303 67.383 73.033 66.6025 71.7537C65.8436 70.4528 65.4642 68.9351 65.4642 67.2006C65.4642 65.4877 65.8436 63.9483 66.6025 62.5823C67.3613 61.1947 68.4346 60.0998 69.8222 59.2975C71.2099 58.4953 72.8252 58.0942 74.6681 58.0942ZM74.3754 58.6796C73.2046 58.6796 72.2398 59.4276 71.4809 60.9237C70.7437 62.398 70.3751 64.4578 70.3751 67.103C70.3751 69.0544 70.5703 70.6263 70.9605 71.8188C71.3508 73.0113 71.8603 73.8786 72.4891 74.4206C73.1396 74.9627 73.8442 75.2337 74.6031 75.2337C75.7739 75.2337 76.7279 74.4857 77.4651 72.9896C78.2239 71.4936 78.6034 69.423 78.6034 66.7778C78.6034 64.8264 78.4082 63.2545 78.018 62.062C77.6277 60.8695 77.1073 60.013 76.4569 59.4927C75.8281 58.9506 75.1343 58.6796 74.3754 58.6796ZM91.337 50.614C92.8981 50.614 94.1665 51.0801 95.1422 52.0124C96.1179 52.9448 96.6057 54.2457 96.6057 55.9152C96.6057 56.9993 96.3781 57.9533 95.9227 58.7772C95.4674 59.6011 94.8387 60.2407 94.0364 60.696C93.2559 61.1513 92.3561 61.379 91.337 61.379C89.7759 61.379 88.4967 60.9128 87.4994 59.9805C86.5237 59.0482 86.0358 57.7473 86.0358 56.0778C86.0358 54.9937 86.2635 54.0397 86.7188 53.2158C87.1958 52.3919 87.8246 51.7523 88.6051 51.2969C89.4074 50.8416 90.318 50.614 91.337 50.614ZM102.2 65.6395C101.506 65.6395 100.975 66.0514 100.606 66.8753C100.259 67.6992 100.086 68.9026 100.086 70.4854C100.086 72.0681 100.281 73.2606 100.671 74.0629C101.083 74.8434 101.636 75.2337 102.33 75.2337C103.045 75.2337 103.566 74.8217 103.891 73.9978C104.238 73.1739 104.411 71.9814 104.411 70.4203C104.411 68.8159 104.216 67.6234 103.826 66.8428C103.435 66.0406 102.893 65.6395 102.2 65.6395ZM102.265 65.0541C103.826 65.0541 105.094 65.5202 106.07 66.4525C107.046 67.3849 107.533 68.6858 107.533 70.3553C107.533 71.4394 107.306 72.3934 106.85 73.2173C106.395 74.0412 105.766 74.6808 104.964 75.1361C104.184 75.5914 103.284 75.8191 102.265 75.8191C100.704 75.8191 99.4244 75.3529 98.427 74.4206C97.4513 73.4883 96.9635 72.1874 96.9635 70.5179C96.9635 69.4338 97.1911 68.4798 97.6465 67.6559C98.1235 66.832 98.7522 66.1924 99.5328 65.737C100.335 65.2817 101.246 65.0541 102.265 65.0541ZM91.272 51.1994C90.5782 51.1994 90.047 51.6113 89.6784 52.4352C89.3315 53.2592 89.158 54.4625 89.158 56.0453C89.158 57.628 89.3532 58.8205 89.7434 59.6228C90.1554 60.4033 90.7083 60.7936 91.4021 60.7936C92.1176 60.7936 92.638 60.3816 92.9632 59.5577C93.3101 58.7338 93.4835 57.5413 93.4835 55.9802C93.4835 54.3758 93.2884 53.1833 92.8981 52.4027C92.5079 51.6005 91.9658 51.1994 91.272 51.1994ZM106.167 48.565L106.785 48.9878L87.7595 77.1525L87.1416 76.7297L106.167 48.565ZM59.8886 87.8824C62.1868 87.8824 64.1924 88.3485 65.9053 89.2808C67.6398 90.2132 68.9841 91.5574 69.9381 93.3137C70.8921 95.0482 71.3691 97.1622 71.3691 99.6556C71.3691 102.084 70.8813 104.209 69.9056 106.03C68.9299 107.851 67.5639 109.271 65.8077 110.291C64.0732 111.31 62.0893 111.819 59.8561 111.819C57.5578 111.819 55.5414 111.353 53.8068 110.421C52.094 109.488 50.7605 108.144 49.8065 106.388C48.8525 104.632 48.3755 102.518 48.3755 100.046C48.3755 97.6175 48.8634 95.4927 49.8391 93.6714C50.8364 91.8501 52.1915 90.43 53.9044 89.4109C55.6389 88.3919 57.6337 87.8824 59.8886 87.8824ZM59.7585 88.4678C58.5443 88.4678 57.4819 88.9556 56.5713 89.9313C55.6823 90.907 54.9885 92.2512 54.4898 93.9641C54.0128 95.677 53.7743 97.6609 53.7743 99.9158C53.7743 102.214 54.0453 104.22 54.5874 105.932C55.1511 107.624 55.8991 108.935 56.8314 109.868C57.7854 110.778 58.837 111.234 59.9861 111.234C61.2003 111.234 62.2519 110.746 63.1408 109.77C64.0515 108.794 64.7453 107.45 65.2223 105.737C65.721 104.003 65.9703 102.019 65.9703 99.7857C65.9703 97.4657 65.6885 95.4602 65.1247 93.769C64.5827 92.0778 63.8347 90.7769 62.8807 89.8662C61.9483 88.9339 60.9076 88.4678 59.7585 88.4678ZM91.0179 88.3377C90.9312 89.3134 90.8661 90.2565 90.8228 91.1672C90.8011 92.0778 90.7903 92.7824 90.7903 93.2811C90.7903 93.7581 90.8011 94.2134 90.8228 94.6471C90.8445 95.0807 90.8661 95.4493 90.8878 95.7529H90.1398C89.8579 94.0617 89.4677 92.7391 88.969 91.7851C88.4703 90.8094 87.8524 90.1156 87.1152 89.7036C86.3997 89.2917 85.5433 89.0857 84.5459 89.0857H83.4726C82.8439 89.0857 82.3669 89.1399 82.0416 89.2483C81.7164 89.3567 81.4996 89.5735 81.3912 89.8988C81.2828 90.224 81.2286 90.7227 81.2286 91.3948V107.721C81.2286 108.567 81.3153 109.196 81.4888 109.608C81.6622 110.019 81.9983 110.291 82.497 110.421C82.9956 110.551 83.7328 110.627 84.7085 110.648V111.364C84.0364 111.342 83.1691 111.32 82.1067 111.299C81.0443 111.277 79.9277 111.266 78.7568 111.266C77.8245 111.266 76.9139 111.277 76.0249 111.299C75.136 111.32 74.3337 111.342 73.6182 111.364V110.713C74.3121 110.67 74.8324 110.583 75.1793 110.453C75.5262 110.323 75.7539 110.063 75.8623 109.673C75.9924 109.282 76.0575 108.697 76.0575 107.916V91.7851C76.0575 90.9829 75.9924 90.3974 75.8623 90.0289C75.7539 89.6386 75.5154 89.3784 75.1468 89.2483C74.7999 89.0965 74.2904 89.0098 73.6182 88.9881V88.3377C74.5072 88.3594 75.4504 88.381 76.4477 88.4027C77.4451 88.4027 78.4316 88.4136 79.4073 88.4352C80.383 88.4352 81.2936 88.4352 82.1392 88.4352C82.9848 88.4352 83.6786 88.4352 84.2207 88.4352C85.218 88.4352 86.3455 88.4352 87.603 88.4352C88.8823 88.4136 90.0205 88.381 91.0179 88.3377ZM86.172 99.5905C86.172 99.5905 86.172 99.6989 86.172 99.9158C86.172 100.133 86.172 100.241 86.172 100.241H80.2529C80.2529 100.241 80.2529 100.133 80.2529 99.9158C80.2529 99.6989 80.2529 99.5905 80.2529 99.5905H86.172ZM86.9851 95.2975C86.8984 96.5334 86.855 97.4766 86.855 98.127C86.8767 98.7775 86.8875 99.3737 86.8875 99.9158C86.8875 100.458 86.8984 101.054 86.92 101.705C86.9417 102.355 86.9959 103.298 87.0827 104.534H86.3346C86.2045 103.775 85.9986 103.07 85.7167 102.42C85.4348 101.77 85.0229 101.249 84.4808 100.859C83.9388 100.447 83.2341 100.241 82.3669 100.241V99.5905C83.0173 99.5905 83.5594 99.4604 83.993 99.2003C84.4483 98.9184 84.8278 98.5607 85.1313 98.127C85.4348 97.6717 85.6733 97.1947 85.8468 96.696C86.0203 96.1973 86.1503 95.7312 86.2371 95.2975H86.9851ZM110.265 88.3377C110.178 89.3134 110.113 90.2565 110.07 91.1672C110.048 92.0778 110.037 92.7824 110.037 93.2811C110.037 93.7581 110.048 94.2134 110.07 94.6471C110.091 95.0807 110.113 95.4493 110.135 95.7529H109.387C109.105 94.0617 108.715 92.7391 108.216 91.7851C107.717 90.8094 107.099 90.1156 106.362 89.7036C105.647 89.2917 104.79 89.0857 103.793 89.0857H102.719C102.091 89.0857 101.614 89.1399 101.288 89.2483C100.963 89.3567 100.746 89.5735 100.638 89.8988C100.53 90.224 100.475 90.7227 100.475 91.3948V107.721C100.475 108.567 100.562 109.196 100.736 109.608C100.909 110.019 101.245 110.291 101.744 110.421C102.242 110.551 102.98 110.627 103.955 110.648V111.364C103.283 111.342 102.416 111.32 101.354 111.299C100.291 111.277 99.1745 111.266 98.0037 111.266C97.0714 111.266 96.1607 111.277 95.2718 111.299C94.3828 111.32 93.5806 111.342 92.8651 111.364V110.713C93.5589 110.67 94.0793 110.583 94.4262 110.453C94.7731 110.323 95.0008 110.063 95.1092 109.673C95.2393 109.282 95.3043 108.697 95.3043 107.916V91.7851C95.3043 90.9829 95.2393 90.3974 95.1092 90.0289C95.0008 89.6386 94.7623 89.3784 94.3937 89.2483C94.0468 89.0965 93.5372 89.0098 92.8651 88.9881V88.3377C93.7541 88.3594 94.6972 88.381 95.6946 88.4027C96.6919 88.4027 97.6785 88.4136 98.6541 88.4352C99.6298 88.4352 100.54 88.4352 101.386 88.4352C102.232 88.4352 102.925 88.4352 103.468 88.4352C104.465 88.4352 105.592 88.4352 106.85 88.4352C108.129 88.4136 109.267 88.381 110.265 88.3377ZM105.419 99.5905C105.419 99.5905 105.419 99.6989 105.419 99.9158C105.419 100.133 105.419 100.241 105.419 100.241H99.4997C99.4997 100.241 99.4997 100.133 99.4997 99.9158C99.4997 99.6989 99.4997 99.5905 99.4997 99.5905H105.419ZM106.232 95.2975C106.145 96.5334 106.102 97.4766 106.102 98.127C106.124 98.7775 106.134 99.3737 106.134 99.9158C106.134 100.458 106.145 101.054 106.167 101.705C106.189 102.355 106.243 103.298 106.33 104.534H105.581C105.451 103.775 105.245 103.07 104.964 102.42C104.682 101.77 104.27 101.249 103.728 100.859C103.186 100.447 102.481 100.241 101.614 100.241V99.5905C102.264 99.5905 102.806 99.4604 103.24 99.2003C103.695 98.9184 104.075 98.5607 104.378 98.127C104.682 97.6717 104.92 97.1947 105.094 96.696C105.267 96.1973 105.397 95.7312 105.484 95.2975H106.232Z" fill="#0F2615"/>
</svg>
