<svg width="32" height="32" viewBox="0 0 32 32" fill="none" xmlns="http://www.w3.org/2000/svg">
<rect width="32" height="32" rx="16" fill="#E8EEE8"/>
<path d="M12 20C10.8933 20 9.95013 19.6099 9.1704 18.8296C8.39013 18.0499 8 17.1067 8 16C8 14.8933 8.39013 13.9499 9.1704 13.1696C9.95013 12.3899 10.8933 12 12 12H14.4C14.6267 12 14.8168 12.0765 14.9704 12.2296C15.1235 12.3832 15.2 12.5733 15.2 12.8C15.2 13.0267 15.1235 13.2165 14.9704 13.3696C14.8168 13.5232 14.6267 13.6 14.4 13.6H12C11.3333 13.6 10.7667 13.8333 10.3 14.3C9.83333 14.7667 9.6 15.3333 9.6 16C9.6 16.6667 9.83333 17.2333 10.3 17.7C10.7667 18.1667 11.3333 18.4 12 18.4H14.4C14.6267 18.4 14.8168 18.4765 14.9704 18.6296C15.1235 18.7832 15.2 18.9733 15.2 19.2C15.2 19.4267 15.1235 19.6165 14.9704 19.7696C14.8168 19.9232 14.6267 20 14.4 20H12ZM13.6 16.8C13.3733 16.8 13.1835 16.7232 13.0304 16.5696C12.8768 16.4165 12.8 16.2267 12.8 16C12.8 15.7733 12.8768 15.5832 13.0304 15.4296C13.1835 15.2765 13.3733 15.2 13.6 15.2H18.4C18.6267 15.2 18.8168 15.2765 18.9704 15.4296C19.1235 15.5832 19.2 15.7733 19.2 16C19.2 16.2267 19.1235 16.4165 18.9704 16.5696C18.8168 16.7232 18.6267 16.8 18.4 16.8H13.6ZM17.6 20C17.3733 20 17.1835 19.9232 17.0304 19.7696C16.8768 19.6165 16.8 19.4267 16.8 19.2C16.8 18.9733 16.8768 18.7832 17.0304 18.6296C17.1835 18.4765 17.3733 18.4 17.6 18.4H20C20.6667 18.4 21.2333 18.1667 21.7 17.7C22.1667 17.2333 22.4 16.6667 22.4 16C22.4 15.3333 22.1667 14.7667 21.7 14.3C21.2333 13.8333 20.6667 13.6 20 13.6H17.6C17.3733 13.6 17.1835 13.5232 17.0304 13.3696C16.8768 13.2165 16.8 13.0267 16.8 12.8C16.8 12.5733 16.8768 12.3832 17.0304 12.2296C17.1835 12.0765 17.3733 12 17.6 12H20C21.1067 12 22.0501 12.3899 22.8304 13.1696C23.6101 13.9499 24 14.8933 24 16C24 17.1067 23.6101 18.0499 22.8304 18.8296C22.0501 19.6099 21.1067 20 20 20H17.6Z" fill="#465928"/>
</svg>
