<svg width="32" height="32" viewBox="0 0 32 32" fill="none" xmlns="http://www.w3.org/2000/svg">
<rect width="32" height="32" rx="16" fill="#E8EEE8"/>
<path d="M25.6878 9.89294C24.9636 10.2143 24.1858 10.4315 23.368 10.5291C24.2026 10.0294 24.842 9.23739 25.1439 8.2948C24.3511 8.76569 23.4834 9.0972 22.5786 9.27492C21.8423 8.49003 20.7922 8 19.6305 8C17.4007 8 15.5923 9.80765 15.5923 12.0388C15.5923 12.3549 15.628 12.6633 15.6964 12.9594C12.3397 12.7907 9.36382 11.1828 7.37188 8.73964C7.02407 9.33633 6.82498 10.0301 6.82498 10.7703C6.82498 12.1713 7.53808 13.4075 8.62163 14.1316C7.98018 14.1117 7.35282 13.9386 6.79198 13.6266V13.6777C6.79198 15.6347 8.18393 17.2665 10.0317 17.6376C9.69224 17.7306 9.33603 17.7792 8.96752 17.7792C8.70696 17.7792 8.45418 17.7545 8.20723 17.7081C8.7212 19.3121 10.2128 20.4797 11.9796 20.5127C10.5973 21.5962 8.85564 22.2421 6.96396 22.2421C6.63814 22.2421 6.31612 22.2227 6 22.1846C7.78763 23.3308 9.91015 24 12.191 24C19.6195 24 23.6822 17.8458 23.6822 12.5088C23.6822 12.3336 23.6784 12.1597 23.6699 11.9864C24.4615 11.4139 25.1447 10.705 25.6878 9.89294Z" fill="#465928"/>
</svg>
