<svg width="48" height="48" viewBox="0 0 48 48" fill="none" xmlns="http://www.w3.org/2000/svg">
<path d="M22.522 15.5C23.8211 15.4999 25.0933 15.8699 26.1897 16.5668C27.286 17.2637 28.161 18.2586 28.7123 19.435C29.2635 20.6113 29.4681 21.9204 29.3021 23.2088C29.136 24.4973 28.6063 25.7117 27.7749 26.7099L32.4892 31.4242C32.571 31.5002 32.6308 31.5968 32.6623 31.7038C32.6938 31.8109 32.6958 31.9245 32.6682 32.0327C32.6405 32.1408 32.5842 32.2395 32.5052 32.3183C32.4261 32.3971 32.3273 32.4532 32.2191 32.4806C32.1111 32.5083 31.9976 32.5063 31.8906 32.475C31.7836 32.4436 31.687 32.384 31.611 32.3024L26.8966 27.5881C26.053 28.2905 25.0527 28.7794 23.9802 29.0135C22.9077 29.2475 21.7946 29.2198 20.7351 28.9327C19.6756 28.6456 18.7008 28.1075 17.8932 27.3641C17.0856 26.6206 16.469 25.6935 16.0954 24.6613C15.7219 23.6291 15.6024 22.5221 15.7472 21.434C15.8919 20.3459 16.2966 19.3086 16.927 18.41C17.5574 17.5113 18.395 16.7777 19.3688 16.2712C20.3427 15.7647 21.4243 15.5001 22.522 15.5ZM16.9294 22.3353C16.9294 23.0697 17.0741 23.797 17.3551 24.4755C17.6362 25.154 18.0481 25.7705 18.5674 26.2898C19.0867 26.8091 19.7033 27.2211 20.3818 27.5021C21.0603 27.7832 21.7875 27.9278 22.522 27.9278C23.2564 27.9278 23.9836 27.7832 24.6622 27.5021C25.3407 27.2211 25.9572 26.8091 26.4765 26.2898C26.9958 25.7705 27.4078 25.154 27.6888 24.4755C27.9699 23.797 28.1146 23.0697 28.1146 22.3353C28.1146 20.8521 27.5253 19.4296 26.4765 18.3808C25.4277 17.332 24.0052 16.7428 22.522 16.7428C21.0387 16.7428 19.6162 17.332 18.5674 18.3808C17.5186 19.4296 16.9294 20.8521 16.9294 22.3353Z" fill="#0F2615"/>
</svg>
