<svg width="198" height="198" viewBox="0 0 198 198" fill="none" xmlns="http://www.w3.org/2000/svg">
<path d="M64.6397 38.7502C70.5575 38.2779 76.1755 35.951 80.6942 32.1007C85.8002 27.747 92.2908 25.3555 99.001 25.3555C105.711 25.3555 112.202 27.747 117.308 32.1007C121.826 35.951 127.444 38.2779 133.362 38.7502C140.051 39.2824 146.331 42.1808 151.076 46.9254C155.82 51.6699 158.719 57.9501 159.251 64.6387C159.723 70.5565 162.05 76.1746 165.9 80.6933C170.254 85.7993 172.646 92.2898 172.646 99C172.646 105.71 170.254 112.201 165.9 117.307C162.05 121.825 159.723 127.443 159.251 133.361C158.719 140.05 155.82 146.33 151.076 151.075C146.331 155.819 140.051 158.718 133.362 159.25C127.444 159.722 121.826 162.049 117.308 165.899C112.202 170.253 105.711 172.645 99.001 172.645C92.2908 172.645 85.8002 170.253 80.6942 165.899C76.1755 162.049 70.5575 159.722 64.6397 159.25C57.951 158.718 51.6709 155.819 46.9263 151.075C42.1818 146.33 39.2834 140.05 38.7512 133.361C38.2789 127.443 35.952 121.825 32.1017 117.307C27.7479 112.201 25.3564 105.71 25.3564 99C25.3564 92.2898 27.7479 85.7993 32.1017 80.6933C35.952 76.1746 38.2789 70.5565 38.7512 64.6387C39.2834 57.9501 42.1818 51.6699 46.9263 46.9254C51.6709 42.1808 57.951 39.2824 64.6397 38.7502Z" fill="#D9D389" stroke="#0F2615" stroke-width="11.25" stroke-linecap="round" stroke-linejoin="round"/>
<path d="M69.6375 71.4945C71.7165 71.4945 73.3635 71.94 74.5785 72.831C75.7935 73.722 76.401 74.991 76.401 76.638C76.401 77.691 76.131 78.6495 75.591 79.5135C75.078 80.3775 74.3895 81.201 73.5255 81.984C72.6615 82.74 71.73 83.4555 70.731 84.1305C69.759 84.8055 68.814 85.4805 67.896 86.1555C66.978 86.8035 66.195 87.4785 65.547 88.1805H74.295C75.402 88.1805 76.104 88.0455 76.401 87.7755C76.698 87.5055 76.9005 87.033 77.0085 86.358H77.859C77.859 88.167 77.8725 89.571 77.8995 90.57C77.9265 91.569 77.967 92.4465 78.021 93.2025C77.778 93.1485 77.3325 93.108 76.6845 93.081C76.0365 93.054 75.294 93.027 74.457 93C73.62 93 72.7965 93 71.9865 93H60.201V92.2305C60.957 91.4205 61.8885 90.5295 62.9955 89.5575C64.1025 88.5855 65.1825 87.5055 66.2355 86.3175C67.3155 85.1295 68.22 83.847 68.949 82.47C69.678 81.066 70.0425 79.5675 70.0425 77.9745C70.0425 76.5165 69.7185 75.4635 69.0705 74.8155C68.4225 74.1675 67.491 73.8435 66.276 73.8435C65.115 73.8435 64.089 74.1135 63.198 74.6535C62.334 75.1665 61.551 75.936 60.849 76.962L60.1605 76.557C60.7005 75.639 61.3755 74.802 62.1855 74.046C63.0225 73.263 64.0485 72.642 65.2635 72.183C66.4785 71.724 67.9365 71.4945 69.6375 71.4945ZM92.9832 71.4945C95.1432 71.4945 97.0467 71.94 98.6937 72.831C100.341 73.695 101.637 74.937 102.582 76.557C103.527 78.15 103.999 80.0265 103.999 82.1865C103.999 84.3465 103.513 86.2905 102.541 88.0185C101.596 89.7195 100.26 91.0695 98.5317 92.0685C96.8307 93.0675 94.8327 93.567 92.5377 93.567C90.4317 93.567 88.5417 93.1215 86.8677 92.2305C85.2207 91.3395 83.9112 90.0975 82.9392 88.5045C81.9942 86.8845 81.5217 84.9945 81.5217 82.8345C81.5217 80.7015 81.9942 78.7845 82.9392 77.0835C83.8842 75.3555 85.2207 73.992 86.9487 72.993C88.6767 71.994 90.6882 71.4945 92.9832 71.4945ZM92.6187 72.2235C91.1607 72.2235 89.9592 73.155 89.0142 75.018C88.0962 76.854 87.6372 79.419 87.6372 82.713C87.6372 85.143 87.8802 87.1005 88.3662 88.5855C88.8522 90.0705 89.4867 91.1505 90.2697 91.8255C91.0797 92.5005 91.9572 92.838 92.9022 92.838C94.3602 92.838 95.5482 91.9065 96.4662 90.0435C97.4112 88.1805 97.8837 85.602 97.8837 82.308C97.8837 79.878 97.6407 77.9205 97.1547 76.4355C96.6687 74.9505 96.0207 73.884 95.2107 73.236C94.4277 72.561 93.5637 72.2235 92.6187 72.2235ZM113.741 62.1795C115.685 62.1795 117.264 62.76 118.479 63.921C119.694 65.082 120.302 66.702 120.302 68.781C120.302 70.131 120.018 71.319 119.451 72.345C118.884 73.371 118.101 74.1675 117.102 74.7345C116.13 75.3015 115.01 75.585 113.741 75.585C111.797 75.585 110.204 75.0045 108.962 73.8435C107.747 72.6825 107.139 71.0625 107.139 68.9835C107.139 67.6335 107.423 66.4455 107.99 65.4195C108.584 64.3935 109.367 63.597 110.339 63.03C111.338 62.463 112.472 62.1795 113.741 62.1795ZM127.268 80.8905C126.404 80.8905 125.742 81.4035 125.283 82.4295C124.851 83.4555 124.635 84.954 124.635 86.925C124.635 88.896 124.878 90.381 125.364 91.38C125.877 92.352 126.566 92.838 127.43 92.838C128.321 92.838 128.969 92.325 129.374 91.299C129.806 90.273 130.022 88.788 130.022 86.844C130.022 84.846 129.779 83.361 129.293 82.389C128.807 81.39 128.132 80.8905 127.268 80.8905ZM127.349 80.1615C129.293 80.1615 130.872 80.742 132.087 81.903C133.302 83.064 133.91 84.684 133.91 86.763C133.91 88.113 133.626 89.301 133.059 90.327C132.492 91.353 131.709 92.1495 130.71 92.7165C129.738 93.2835 128.618 93.567 127.349 93.567C125.405 93.567 123.812 92.9865 122.57 91.8255C121.355 90.6645 120.747 89.0445 120.747 86.9655C120.747 85.6155 121.031 84.4275 121.598 83.4015C122.192 82.3755 122.975 81.579 123.947 81.012C124.946 80.445 126.08 80.1615 127.349 80.1615ZM113.66 62.9085C112.796 62.9085 112.134 63.4215 111.675 64.4475C111.243 65.4735 111.027 66.972 111.027 68.943C111.027 70.914 111.27 72.399 111.756 73.398C112.269 74.37 112.958 74.856 113.822 74.856C114.713 74.856 115.361 74.343 115.766 73.317C116.198 72.291 116.414 70.806 116.414 68.862C116.414 66.864 116.171 65.379 115.685 64.407C115.199 63.408 114.524 62.9085 113.66 62.9085ZM132.209 59.628L132.978 60.1545L109.286 95.2275L108.516 94.701L132.209 59.628ZM74.5785 108.759C77.4405 108.759 79.938 109.339 82.071 110.5C84.231 111.661 85.905 113.335 87.093 115.522C88.281 117.682 88.875 120.315 88.875 123.42C88.875 126.444 88.2675 129.09 87.0525 131.358C85.8375 133.626 84.1365 135.394 81.9495 136.663C79.7895 137.933 77.319 138.567 74.538 138.567C71.676 138.567 69.165 137.986 67.005 136.825C64.872 135.664 63.2115 133.99 62.0235 131.803C60.8355 129.616 60.2415 126.984 60.2415 123.906C60.2415 120.882 60.849 118.236 62.064 115.968C63.306 113.7 64.9935 111.931 67.1265 110.662C69.2865 109.393 71.7705 108.759 74.5785 108.759ZM74.4165 109.488C72.9045 109.488 71.5815 110.095 70.4475 111.31C69.3405 112.525 68.4765 114.199 67.8555 116.332C67.2615 118.465 66.9645 120.936 66.9645 123.744C66.9645 126.606 67.302 129.103 67.977 131.236C68.679 133.342 69.6105 134.976 70.7715 136.137C71.9595 137.271 73.269 137.838 74.7 137.838C76.212 137.838 77.5215 137.23 78.6285 136.015C79.7625 134.8 80.6265 133.126 81.2205 130.993C81.8415 128.833 82.152 126.363 82.152 123.582C82.152 120.693 81.801 118.195 81.099 116.089C80.424 113.983 79.4925 112.363 78.3045 111.229C77.1435 110.068 75.8475 109.488 74.4165 109.488ZM113.343 109.326C113.235 110.541 113.154 111.715 113.1 112.849C113.073 113.983 113.06 114.861 113.06 115.482C113.06 116.076 113.073 116.643 113.1 117.183C113.127 117.723 113.154 118.182 113.181 118.56H112.25C111.899 116.454 111.413 114.807 110.792 113.619C110.171 112.404 109.401 111.54 108.483 111.027C107.592 110.514 106.526 110.257 105.284 110.257H103.947C103.164 110.257 102.57 110.325 102.165 110.46C101.76 110.595 101.49 110.865 101.355 111.27C101.22 111.675 101.153 112.296 101.153 113.133V133.464C101.153 134.517 101.261 135.3 101.477 135.813C101.693 136.326 102.111 136.663 102.732 136.825C103.353 136.987 104.271 137.082 105.486 137.109V138C104.649 137.973 103.569 137.946 102.246 137.919C100.923 137.892 99.5328 137.878 98.0748 137.878C96.9138 137.878 95.7798 137.892 94.6728 137.919C93.5658 137.946 92.5668 137.973 91.6758 138V137.19C92.5398 137.136 93.1878 137.028 93.6198 136.866C94.0518 136.704 94.3353 136.38 94.4703 135.894C94.6323 135.408 94.7133 134.679 94.7133 133.707V113.619C94.7133 112.62 94.6323 111.891 94.4703 111.432C94.3353 110.946 94.0383 110.622 93.5793 110.46C93.1473 110.271 92.5128 110.163 91.6758 110.136V109.326C92.7828 109.353 93.9573 109.38 95.1993 109.407C96.4413 109.407 97.6698 109.42 98.8848 109.447C100.1 109.447 101.234 109.447 102.287 109.447C103.34 109.447 104.204 109.447 104.879 109.447C106.121 109.447 107.525 109.447 109.091 109.447C110.684 109.42 112.101 109.38 113.343 109.326ZM107.309 123.339C107.309 123.339 107.309 123.474 107.309 123.744C107.309 124.014 107.309 124.149 107.309 124.149H99.9378C99.9378 124.149 99.9378 124.014 99.9378 123.744C99.9378 123.474 99.9378 123.339 99.9378 123.339H107.309ZM108.321 117.993C108.213 119.532 108.159 120.706 108.159 121.516C108.186 122.326 108.2 123.069 108.2 123.744C108.2 124.419 108.213 125.161 108.24 125.971C108.267 126.781 108.335 127.956 108.443 129.495H107.511C107.349 128.55 107.093 127.672 106.742 126.862C106.391 126.052 105.878 125.404 105.203 124.918C104.528 124.405 103.65 124.149 102.57 124.149V123.339C103.38 123.339 104.055 123.177 104.595 122.853C105.162 122.502 105.635 122.056 106.013 121.516C106.391 120.949 106.688 120.355 106.904 119.734C107.12 119.113 107.282 118.533 107.39 117.993H108.321ZM137.311 109.326C137.203 110.541 137.122 111.715 137.068 112.849C137.041 113.983 137.028 114.861 137.028 115.482C137.028 116.076 137.041 116.643 137.068 117.183C137.095 117.723 137.122 118.182 137.149 118.56H136.218C135.867 116.454 135.381 114.807 134.76 113.619C134.139 112.404 133.369 111.54 132.451 111.027C131.56 110.514 130.494 110.257 129.252 110.257H127.915C127.132 110.257 126.538 110.325 126.133 110.46C125.728 110.595 125.458 110.865 125.323 111.27C125.188 111.675 125.121 112.296 125.121 113.133V133.464C125.121 134.517 125.229 135.3 125.445 135.813C125.661 136.326 126.079 136.663 126.7 136.825C127.321 136.987 128.239 137.082 129.454 137.109V138C128.617 137.973 127.537 137.946 126.214 137.919C124.891 137.892 123.501 137.878 122.043 137.878C120.882 137.878 119.748 137.892 118.641 137.919C117.534 137.946 116.535 137.973 115.644 138V137.19C116.508 137.136 117.156 137.028 117.588 136.866C118.02 136.704 118.303 136.38 118.438 135.894C118.6 135.408 118.681 134.679 118.681 133.707V113.619C118.681 112.62 118.6 111.891 118.438 111.432C118.303 110.946 118.006 110.622 117.547 110.46C117.115 110.271 116.481 110.163 115.644 110.136V109.326C116.751 109.353 117.925 109.38 119.167 109.407C120.409 109.407 121.638 109.42 122.853 109.447C124.068 109.447 125.202 109.447 126.255 109.447C127.308 109.447 128.172 109.447 128.847 109.447C130.089 109.447 131.493 109.447 133.059 109.447C134.652 109.42 136.069 109.38 137.311 109.326ZM131.277 123.339C131.277 123.339 131.277 123.474 131.277 123.744C131.277 124.014 131.277 124.149 131.277 124.149H123.906C123.906 124.149 123.906 124.014 123.906 123.744C123.906 123.474 123.906 123.339 123.906 123.339H131.277ZM132.289 117.993C132.181 119.532 132.127 120.706 132.127 121.516C132.154 122.326 132.168 123.069 132.168 123.744C132.168 124.419 132.181 125.161 132.208 125.971C132.235 126.781 132.303 127.956 132.411 129.495H131.479C131.317 128.55 131.061 127.672 130.71 126.862C130.359 126.052 129.846 125.404 129.171 124.918C128.496 124.405 127.618 124.149 126.538 124.149V123.339C127.348 123.339 128.023 123.177 128.563 122.853C129.13 122.502 129.603 122.056 129.981 121.516C130.359 120.949 130.656 120.355 130.872 119.734C131.088 119.113 131.25 118.533 131.358 117.993H132.289Z" fill="#0F2615"/>
</svg>
