<svg width="564" height="58" viewBox="0 0 564 58" fill="none" xmlns="http://www.w3.org/2000/svg">
<rect x="1" y="1" width="562" height="56" rx="28" fill="#465928"/>
<rect x="1" y="1" width="562" height="56" rx="28" stroke="#465928"/>
<path d="M223.75 35.75C223.75 36.58 223.08 37.25 222.25 37.25C221.42 37.25 220.75 36.58 220.75 35.75C220.75 34.92 221.42 34.25 222.25 34.25C223.08 34.25 223.75 34.92 223.75 35.75ZM228.75 34.25C227.92 34.25 227.25 34.92 227.25 35.75C227.25 36.58 227.92 37.25 228.75 37.25C229.58 37.25 230.25 36.58 230.25 35.75C230.25 34.92 229.58 34.25 228.75 34.25ZM233.23 24.68L231.23 32.68C231.189 32.843 231.095 32.9878 230.963 33.0911C230.831 33.1945 230.667 33.2504 230.5 33.25H220.5C220.14 33.25 219.83 32.99 219.76 32.63L217.87 22.25H216.5C216.09 22.25 215.75 21.91 215.75 21.5C215.75 21.09 216.09 20.75 216.5 20.75H218.5C218.86 20.75 219.17 21.01 219.24 21.37L219.67 23.75H232.5C232.613 23.7505 232.725 23.7767 232.828 23.8266C232.93 23.8766 233.019 23.949 233.089 24.0384C233.16 24.1279 233.209 24.2321 233.233 24.3432C233.257 24.4543 233.256 24.5694 233.23 24.68ZM231.54 25.25H219.94L221.12 31.75H229.91L231.54 25.25Z" fill="#D9D389"/>
<path d="M254.443 27.5C254.334 27.1652 254.19 26.8653 254.011 26.6001C253.835 26.3317 253.625 26.103 253.38 25.9141C253.138 25.7251 252.862 25.581 252.554 25.4815C252.246 25.3821 251.908 25.3324 251.54 25.3324C250.937 25.3324 250.388 25.4882 249.894 25.7997C249.401 26.1113 249.008 26.5703 248.716 27.1768C248.424 27.7834 248.279 28.5275 248.279 29.4091C248.279 30.2907 248.426 31.0348 248.721 31.6413C249.016 32.2479 249.415 32.7069 249.919 33.0185C250.423 33.33 250.99 33.4858 251.62 33.4858C252.203 33.4858 252.717 33.3615 253.161 33.1129C253.608 32.861 253.956 32.5064 254.205 32.049C254.457 31.5883 254.583 31.0464 254.583 30.4233L254.96 30.5028H251.898V29.4091H255.776V30.5028C255.776 31.3414 255.597 32.0705 255.239 32.6903C254.884 33.3101 254.394 33.7907 253.767 34.1321C253.144 34.4702 252.428 34.6392 251.62 34.6392C250.718 34.6392 249.926 34.4271 249.243 34.0028C248.564 33.5786 248.033 32.9754 247.652 32.1932C247.274 31.411 247.085 30.483 247.085 29.4091C247.085 28.6037 247.193 27.8795 247.409 27.2365C247.627 26.5902 247.936 26.04 248.333 25.5859C248.731 25.1319 249.202 24.7839 249.745 24.5419C250.289 24.3 250.887 24.179 251.54 24.179C252.077 24.179 252.577 24.2602 253.041 24.4226C253.509 24.5817 253.925 24.8087 254.289 25.1037C254.657 25.3954 254.964 25.745 255.209 26.1527C255.454 26.5571 255.623 27.0062 255.716 27.5H254.443ZM260.93 34.6591C260.194 34.6591 259.56 34.4967 259.026 34.1719C258.496 33.8438 258.086 33.3864 257.798 32.7997C257.513 32.2098 257.37 31.5237 257.37 30.7415C257.37 29.9593 257.513 29.2699 257.798 28.6733C258.086 28.0734 258.487 27.6061 259.001 27.2713C259.518 26.9332 260.121 26.7642 260.811 26.7642C261.209 26.7642 261.601 26.8305 261.989 26.9631C262.377 27.0956 262.73 27.3111 263.048 27.6094C263.366 27.9044 263.62 28.2955 263.809 28.7827C263.998 29.2699 264.092 29.8698 264.092 30.5824V31.0795H258.206V30.0653H262.899C262.899 29.6345 262.813 29.25 262.64 28.9119C262.471 28.5739 262.229 28.3071 261.914 28.1115C261.603 27.916 261.235 27.8182 260.811 27.8182C260.343 27.8182 259.939 27.9342 259.598 28.1662C259.26 28.3949 258.999 28.6932 258.817 29.0611C258.635 29.429 258.544 29.8234 258.544 30.2443V30.9205C258.544 31.4972 258.643 31.986 258.842 32.3871C259.044 32.7848 259.324 33.0881 259.682 33.2969C260.04 33.5024 260.456 33.6051 260.93 33.6051C261.238 33.6051 261.517 33.562 261.765 33.4759C262.017 33.3864 262.234 33.2538 262.417 33.0781C262.599 32.8991 262.74 32.6771 262.839 32.4119L263.973 32.7301C263.853 33.1146 263.653 33.4527 263.371 33.7443C263.089 34.0327 262.741 34.258 262.327 34.4205C261.913 34.5795 261.447 34.6591 260.93 34.6591ZM269.198 26.8636V27.858H265.24V26.8636H269.198ZM266.394 25.0341H267.567V32.3125C267.567 32.6439 267.615 32.8925 267.711 33.0582C267.811 33.2206 267.937 33.33 268.089 33.3864C268.245 33.4394 268.409 33.4659 268.581 33.4659C268.711 33.4659 268.817 33.4593 268.9 33.446C268.982 33.4295 269.049 33.4162 269.098 33.4062L269.337 34.4602C269.258 34.4901 269.146 34.5199 269.004 34.5497C268.861 34.5829 268.681 34.5994 268.462 34.5994C268.131 34.5994 267.806 34.5282 267.488 34.3857C267.173 34.2431 266.911 34.026 266.702 33.7344C266.497 33.4427 266.394 33.0748 266.394 32.6307V25.0341ZM278.221 26.8636V27.858H274.264V26.8636H278.221ZM275.417 25.0341H276.591V32.3125C276.591 32.6439 276.639 32.8925 276.735 33.0582C276.834 33.2206 276.96 33.33 277.113 33.3864C277.268 33.4394 277.432 33.4659 277.605 33.4659C277.734 33.4659 277.84 33.4593 277.923 33.446C278.006 33.4295 278.072 33.4162 278.122 33.4062L278.361 34.4602C278.281 34.4901 278.17 34.5199 278.027 34.5497C277.885 34.5829 277.704 34.5994 277.486 34.5994C277.154 34.5994 276.829 34.5282 276.511 34.3857C276.196 34.2431 275.934 34.026 275.726 33.7344C275.52 33.4427 275.417 33.0748 275.417 32.6307V25.0341ZM281.324 29.9062V34.5H280.15V24.3182H281.324V28.0568H281.423C281.602 27.6624 281.87 27.3492 282.228 27.1172C282.59 26.8819 283.07 26.7642 283.67 26.7642C284.191 26.7642 284.646 26.8686 285.037 27.0774C285.428 27.2829 285.732 27.5994 285.947 28.027C286.166 28.4512 286.275 28.9915 286.275 29.6477V34.5H285.102V29.7273C285.102 29.1207 284.945 28.6518 284.63 28.3203C284.318 27.9856 283.886 27.8182 283.332 27.8182C282.948 27.8182 282.603 27.8994 282.298 28.0618C281.996 28.2242 281.758 28.4612 281.582 28.7727C281.41 29.0843 281.324 29.4621 281.324 29.9062ZM291.623 34.6591C290.888 34.6591 290.253 34.4967 289.719 34.1719C289.189 33.8438 288.78 33.3864 288.491 32.7997C288.206 32.2098 288.064 31.5237 288.064 30.7415C288.064 29.9593 288.206 29.2699 288.491 28.6733C288.78 28.0734 289.181 27.6061 289.694 27.2713C290.212 26.9332 290.815 26.7642 291.504 26.7642C291.902 26.7642 292.295 26.8305 292.682 26.9631C293.07 27.0956 293.423 27.3111 293.741 27.6094C294.06 27.9044 294.313 28.2955 294.502 28.7827C294.691 29.2699 294.785 29.8698 294.785 30.5824V31.0795H288.899V30.0653H293.592C293.592 29.6345 293.506 29.25 293.334 28.9119C293.165 28.5739 292.923 28.3071 292.608 28.1115C292.296 27.916 291.928 27.8182 291.504 27.8182C291.037 27.8182 290.632 27.9342 290.291 28.1662C289.953 28.3949 289.693 28.6932 289.511 29.0611C289.328 29.429 289.237 29.8234 289.237 30.2443V30.9205C289.237 31.4972 289.337 31.986 289.535 32.3871C289.738 32.7848 290.018 33.0881 290.376 33.2969C290.734 33.5024 291.15 33.6051 291.623 33.6051C291.932 33.6051 292.21 33.562 292.459 33.4759C292.711 33.3864 292.928 33.2538 293.11 33.0781C293.292 32.8991 293.433 32.6771 293.533 32.4119L294.666 32.7301C294.547 33.1146 294.346 33.4527 294.065 33.7443C293.783 34.0327 293.435 34.258 293.02 34.4205C292.606 34.5795 292.141 34.6591 291.623 34.6591ZM300.508 37.3636V26.8636H301.641V28.0767H301.78C301.867 27.9441 301.986 27.7751 302.138 27.5696C302.294 27.3608 302.516 27.1752 302.805 27.0128C303.096 26.8471 303.491 26.7642 303.988 26.7642C304.631 26.7642 305.198 26.925 305.688 27.2464C306.179 27.5679 306.561 28.0237 306.837 28.6136C307.112 29.2036 307.249 29.8996 307.249 30.7017C307.249 31.5104 307.112 32.2114 306.837 32.8047C306.561 33.3946 306.18 33.852 305.693 34.1768C305.206 34.4983 304.644 34.6591 304.008 34.6591C303.517 34.6591 303.124 34.5779 302.829 34.4155C302.534 34.2498 302.307 34.0625 302.148 33.8537C301.989 33.6416 301.867 33.4659 301.78 33.3267H301.681V37.3636H300.508ZM301.661 30.6818C301.661 31.2585 301.746 31.7673 301.915 32.2081C302.084 32.6456 302.331 32.9886 302.655 33.2372C302.98 33.4825 303.378 33.6051 303.849 33.6051C304.339 33.6051 304.748 33.4759 305.077 33.2173C305.408 32.9555 305.657 32.6042 305.822 32.1634C305.991 31.7192 306.076 31.2254 306.076 30.6818C306.076 30.1449 305.993 29.661 305.827 29.2301C305.665 28.7959 305.418 28.4529 305.087 28.201C304.758 27.9458 304.346 27.8182 303.849 27.8182C303.371 27.8182 302.97 27.9392 302.645 28.1811C302.321 28.4197 302.075 28.7545 301.91 29.1854C301.744 29.6129 301.661 30.1117 301.661 30.6818ZM309.039 34.5V26.8636H310.172V28.017H310.252C310.391 27.6392 310.643 27.3326 311.008 27.0973C311.372 26.862 311.783 26.7443 312.241 26.7443C312.327 26.7443 312.435 26.746 312.564 26.7493C312.693 26.7526 312.791 26.7576 312.857 26.7642V27.9574C312.817 27.9474 312.726 27.9325 312.584 27.9126C312.444 27.8894 312.297 27.8778 312.141 27.8778C311.77 27.8778 311.439 27.9557 311.147 28.1115C310.859 28.264 310.63 28.4761 310.461 28.7479C310.295 29.0163 310.212 29.3229 310.212 29.6676V34.5H309.039ZM317.118 34.6591C316.428 34.6591 315.824 34.495 315.303 34.1669C314.786 33.8388 314.382 33.3797 314.09 32.7898C313.802 32.1998 313.658 31.5104 313.658 30.7216C313.658 29.9261 313.802 29.2318 314.09 28.6385C314.382 28.0452 314.786 27.5845 315.303 27.2564C315.824 26.9283 316.428 26.7642 317.118 26.7642C317.807 26.7642 318.41 26.9283 318.927 27.2564C319.448 27.5845 319.852 28.0452 320.141 28.6385C320.432 29.2318 320.578 29.9261 320.578 30.7216C320.578 31.5104 320.432 32.1998 320.141 32.7898C319.852 33.3797 319.448 33.8388 318.927 34.1669C318.41 34.495 317.807 34.6591 317.118 34.6591ZM317.118 33.6051C317.641 33.6051 318.072 33.4709 318.41 33.2024C318.748 32.9339 318.999 32.581 319.161 32.1435C319.324 31.706 319.405 31.232 319.405 30.7216C319.405 30.2112 319.324 29.7356 319.161 29.2947C318.999 28.8539 318.748 28.4976 318.41 28.2259C318.072 27.9541 317.641 27.8182 317.118 27.8182C316.594 27.8182 316.163 27.9541 315.825 28.2259C315.487 28.4976 315.237 28.8539 315.074 29.2947C314.912 29.7356 314.831 30.2112 314.831 30.7216C314.831 31.232 314.912 31.706 315.074 32.1435C315.237 32.581 315.487 32.9339 315.825 33.2024C316.163 33.4709 316.594 33.6051 317.118 33.6051ZM325.253 34.6591C324.616 34.6591 324.054 34.4983 323.567 34.1768C323.08 33.852 322.699 33.3946 322.424 32.8047C322.149 32.2114 322.011 31.5104 322.011 30.7017C322.011 29.8996 322.149 29.2036 322.424 28.6136C322.699 28.0237 323.082 27.5679 323.572 27.2464C324.063 26.925 324.629 26.7642 325.272 26.7642C325.77 26.7642 326.162 26.8471 326.451 27.0128C326.742 27.1752 326.964 27.3608 327.117 27.5696C327.273 27.7751 327.394 27.9441 327.48 28.0767H327.579V24.3182H328.753V34.5H327.619V33.3267H327.48C327.394 33.4659 327.271 33.6416 327.112 33.8537C326.953 34.0625 326.726 34.2498 326.431 34.4155C326.136 34.5779 325.743 34.6591 325.253 34.6591ZM325.412 33.6051C325.882 33.6051 326.28 33.4825 326.605 33.2372C326.93 32.9886 327.177 32.6456 327.346 32.2081C327.515 31.7673 327.599 31.2585 327.599 30.6818C327.599 30.1117 327.516 29.6129 327.351 29.1854C327.185 28.7545 326.94 28.4197 326.615 28.1811C326.29 27.9392 325.889 27.8182 325.412 27.8182C324.914 27.8182 324.5 27.9458 324.169 28.201C323.841 28.4529 323.594 28.7959 323.428 29.2301C323.266 29.661 323.184 30.1449 323.184 30.6818C323.184 31.2254 323.267 31.7192 323.433 32.1634C323.602 32.6042 323.851 32.9555 324.179 33.2173C324.51 33.4759 324.921 33.6051 325.412 33.6051ZM335.877 31.3778V26.8636H337.05V34.5H335.877V33.2074H335.797C335.618 33.5952 335.34 33.925 334.962 34.1967C334.584 34.4652 334.107 34.5994 333.53 34.5994C333.053 34.5994 332.629 34.495 332.258 34.2862C331.886 34.0741 331.595 33.7559 331.383 33.3317C331.17 32.9041 331.064 32.3655 331.064 31.7159V26.8636H332.238V31.6364C332.238 32.1932 332.393 32.6373 332.705 32.9688C333.02 33.3002 333.421 33.4659 333.908 33.4659C334.2 33.4659 334.496 33.3913 334.798 33.2422C335.103 33.093 335.358 32.8643 335.564 32.5561C335.772 32.2479 335.877 31.8551 335.877 31.3778ZM342.301 34.6591C341.585 34.6591 340.969 34.4901 340.452 34.152C339.935 33.8139 339.537 33.3482 339.259 32.755C338.98 32.1617 338.841 31.4839 338.841 30.7216C338.841 29.946 338.984 29.2616 339.269 28.6683C339.557 28.0717 339.958 27.6061 340.472 27.2713C340.989 26.9332 341.592 26.7642 342.281 26.7642C342.818 26.7642 343.302 26.8636 343.733 27.0625C344.164 27.2614 344.517 27.5398 344.792 27.8977C345.067 28.2557 345.238 28.6733 345.304 29.1506H344.131C344.041 28.8026 343.843 28.4943 343.534 28.2259C343.229 27.9541 342.818 27.8182 342.301 27.8182C341.844 27.8182 341.443 27.9375 341.098 28.1761C340.757 28.4115 340.49 28.7446 340.298 29.1754C340.109 29.603 340.014 30.1051 340.014 30.6818C340.014 31.2718 340.107 31.7855 340.293 32.223C340.482 32.6605 340.747 33.0002 341.088 33.2422C341.433 33.4841 341.837 33.6051 342.301 33.6051C342.606 33.6051 342.883 33.5521 343.132 33.446C343.38 33.34 343.591 33.1875 343.763 32.9886C343.935 32.7898 344.058 32.5511 344.131 32.2727H345.304C345.238 32.7235 345.074 33.1295 344.812 33.4908C344.554 33.8487 344.21 34.1338 343.783 34.3459C343.359 34.5547 342.865 34.6591 342.301 34.6591ZM350.34 26.8636V27.858H346.383V26.8636H350.34ZM347.536 25.0341H348.71V32.3125C348.71 32.6439 348.758 32.8925 348.854 33.0582C348.953 33.2206 349.079 33.33 349.232 33.3864C349.388 33.4394 349.552 33.4659 349.724 33.4659C349.853 33.4659 349.959 33.4593 350.042 33.446C350.125 33.4295 350.191 33.4162 350.241 33.4062L350.48 34.4602C350.4 34.4901 350.289 34.5199 350.147 34.5497C350.004 34.5829 349.823 34.5994 349.605 34.5994C349.273 34.5994 348.948 34.5282 348.63 34.3857C348.315 34.2431 348.054 34.026 347.845 33.7344C347.639 33.4427 347.536 33.0748 347.536 32.6307V25.0341Z" fill="#D9D389"/>
</svg>
