<svg width="18" height="18" viewBox="0 0 18 18" fill="none" xmlns="http://www.w3.org/2000/svg">
<path d="M8.43701 15.75C8.43701 16.58 7.76701 17.25 6.93701 17.25C6.10701 17.25 5.43701 16.58 5.43701 15.75C5.43701 14.92 6.10701 14.25 6.93701 14.25C7.76701 14.25 8.43701 14.92 8.43701 15.75ZM13.437 14.25C12.607 14.25 11.937 14.92 11.937 15.75C11.937 16.58 12.607 17.25 13.437 17.25C14.267 17.25 14.937 16.58 14.937 15.75C14.937 14.92 14.267 14.25 13.437 14.25ZM17.917 4.68L15.917 12.68C15.8767 12.843 15.7829 12.9878 15.6505 13.0911C15.5181 13.1945 15.3549 13.2504 15.187 13.25H5.18701C4.82701 13.25 4.51701 12.99 4.44701 12.63L2.55701 2.25H1.18701C0.777012 2.25 0.437012 1.91 0.437012 1.5C0.437012 1.09 0.777012 0.75 1.18701 0.75H3.18701C3.54701 0.75 3.85701 1.01 3.92701 1.37L4.35701 3.75H17.187C17.3007 3.75048 17.4129 3.77667 17.515 3.82662C17.6172 3.87657 17.7067 3.94898 17.7769 4.03844C17.8472 4.12789 17.8962 4.23207 17.9205 4.34317C17.9447 4.45427 17.9436 4.56942 17.917 4.68ZM16.227 5.25H4.62701L5.80701 11.75H14.597L16.227 5.25Z" fill="#0F2615"/>
</svg>
