<svg width="124" height="25" viewBox="0 0 124 25" fill="none" xmlns="http://www.w3.org/2000/svg">
<path d="M19.258 14.753C18.3588 15.3224 17.3261 15.6218 16.2739 15.6183C15.3924 15.611 14.5208 15.4232 13.7089 15.0655C13.0831 15.9858 12.7482 17.0863 12.7508 18.214V21.0939C12.751 21.201 12.7301 21.307 12.6893 21.4053C12.6486 21.5036 12.5888 21.5921 12.5138 21.6654C12.4388 21.7387 12.3502 21.7951 12.2534 21.8312C12.1566 21.8672 12.0537 21.8822 11.9511 21.8751C11.7583 21.8576 11.579 21.7649 11.4491 21.6155C11.3192 21.466 11.2484 21.271 11.2508 21.0694V19.8546L7.63014 16.0831C7.09192 16.2923 6.52271 16.4017 5.94827 16.4064C5.15746 16.4084 4.38146 16.183 3.70577 15.755C1.66295 14.462 0.563267 11.4864 0.77608 7.79209C0.786795 7.60097 0.864511 7.42059 0.994474 7.28521C1.12444 7.14983 1.2976 7.06888 1.48108 7.05772C5.02764 6.83994 7.8842 7.98155 9.12171 10.1095C9.60791 10.9435 9.82017 11.9198 9.72639 12.8907C9.72056 12.9659 9.69394 13.0378 9.64974 13.0976C9.60554 13.1574 9.54566 13.2026 9.47733 13.2277C9.40901 13.2528 9.33517 13.2567 9.26474 13.239C9.1943 13.2214 9.1303 13.1828 9.08045 13.128L7.28046 11.1651C7.13866 11.0248 6.94985 10.9477 6.75427 10.9503C6.5587 10.953 6.37185 11.035 6.23355 11.1791C6.09524 11.3232 6.01644 11.5178 6.01394 11.7215C6.01143 11.9252 6.08543 12.1219 6.22014 12.2696L11.2714 17.6651C11.277 17.589 11.2836 17.5128 11.2911 17.4376C11.4551 15.9891 12.0687 14.636 13.0386 13.5841L17.7814 8.36338C17.9221 8.21692 18.0012 8.01822 18.0013 7.81099C18.0014 7.60377 17.9225 7.405 17.7819 7.2584C17.6413 7.11181 17.4505 7.0294 17.2516 7.02931C17.0526 7.02922 16.8618 7.11145 16.7211 7.25791L12.1273 12.3185C12.0813 12.3692 12.0232 12.4062 11.9588 12.4256C11.8945 12.4449 11.8263 12.446 11.7614 12.4287C11.6966 12.4113 11.6373 12.3762 11.5899 12.3269C11.5425 12.2777 11.5085 12.2161 11.4917 12.1485C11.0473 10.4415 11.2433 8.74229 12.0917 7.2833C13.7661 4.4044 17.6623 2.86338 22.5148 3.16026C22.6983 3.17142 22.8715 3.25237 23.0014 3.38775C23.1314 3.52313 23.2091 3.7035 23.2198 3.89463C23.5011 8.9503 22.0217 13.0089 19.258 14.753Z" fill="black"/>
<path d="M33.12 19.6199C32.8427 19.6199 32.5867 19.5132 32.352 19.2999C32.1173 19.1079 32 18.8732 32 18.5959V8.25988C32 7.68388 32.1813 7.24655 32.544 6.94788C32.9067 6.64922 33.312 6.49988 33.76 6.49988H37.152C37.8773 6.49988 38.5493 6.64922 39.168 6.94788C39.808 7.22522 40.32 7.64122 40.704 8.19588C41.088 8.75055 41.28 9.43322 41.28 10.2439C41.28 11.5026 40.8747 12.5052 40.064 13.2519C39.2747 13.9986 38.3147 14.3719 37.184 14.3719H35.04C34.5067 14.3719 34.24 14.6919 34.24 15.3319V18.5959C34.24 18.8732 34.1227 19.1079 33.888 19.2999C33.6747 19.5132 33.4187 19.6199 33.12 19.6199ZM34.88 12.4519H36.832C37.3653 12.4519 37.8773 12.2919 38.368 11.9719C38.88 11.6519 39.136 11.0972 39.136 10.3079C39.136 9.68922 38.9013 9.23055 38.432 8.93188C37.984 8.61188 37.4933 8.45188 36.96 8.45188H34.976C34.4427 8.45188 34.176 8.70788 34.176 9.21988V11.5879C34.176 12.1639 34.4107 12.4519 34.88 12.4519Z" fill="black"/>
<path d="M44.4592 19.6199C44.1819 19.6199 43.9259 19.5346 43.6912 19.3639C43.4779 19.1932 43.3713 18.9479 43.3713 18.6279V6.46788C43.3713 6.10522 43.4779 5.83855 43.6912 5.66788C43.9259 5.47588 44.1819 5.37988 44.4592 5.37988C44.7366 5.37988 44.9819 5.47588 45.1952 5.66788C45.4299 5.83855 45.5472 6.10522 45.5472 6.46788V18.6279C45.5472 18.9479 45.4299 19.1932 45.1952 19.3639C44.9819 19.5346 44.7366 19.6199 44.4592 19.6199Z" fill="black"/>
<path d="M52.3118 19.6199C51.3944 19.6199 50.5731 19.4066 49.8477 18.9799C49.1224 18.5532 48.5571 17.9666 48.1518 17.2199C47.7464 16.4519 47.5437 15.5986 47.5437 14.6599C47.5437 13.7425 47.7464 12.9212 48.1518 12.1959C48.5571 11.4706 49.1224 10.9052 49.8477 10.4999C50.5731 10.0732 51.3944 9.85988 52.3118 9.85988C52.9091 9.85988 53.4424 9.96655 53.9118 10.1799C54.3811 10.3719 54.7864 10.6279 55.1278 10.9479C55.1704 10.6492 55.2984 10.4252 55.5118 10.2759C55.7251 10.1052 55.9597 10.0199 56.2157 10.0199C56.4931 10.0199 56.7384 10.1159 56.9517 10.3079C57.1864 10.4786 57.3038 10.7452 57.3038 11.1079V18.6279C57.3038 18.9479 57.1864 19.1932 56.9517 19.3639C56.7384 19.5346 56.4931 19.6199 56.2157 19.6199C55.9384 19.6199 55.6824 19.5346 55.4478 19.3639C55.2344 19.1932 55.1278 18.9479 55.1278 18.6279V18.4999C54.7864 18.8412 54.3811 19.1079 53.9118 19.2999C53.4424 19.5132 52.9091 19.6199 52.3118 19.6199ZM52.5037 17.6359C53.3144 17.6359 53.9544 17.3692 54.4237 16.8359C54.8931 16.2812 55.1278 15.5559 55.1278 14.6599C55.1278 13.8066 54.8931 13.1239 54.4237 12.6119C53.9544 12.0999 53.3144 11.8439 52.5037 11.8439C51.6717 11.8439 50.9998 12.0999 50.4878 12.6119C49.9758 13.1239 49.7197 13.8066 49.7197 14.6599C49.7197 15.5559 49.9758 16.2812 50.4878 16.8359C50.9998 17.3692 51.6717 17.6359 52.5037 17.6359Z" fill="black"/>
<path d="M67.747 19.6199C67.4697 19.6199 67.2137 19.5346 66.979 19.3639C66.7657 19.1932 66.659 18.9479 66.659 18.6279V14.5959C66.659 13.6572 66.4457 12.9639 66.019 12.5159C65.6137 12.0679 65.0697 11.8439 64.387 11.8439C63.5123 11.8439 62.8723 12.1319 62.467 12.7079C62.083 13.2626 61.891 13.8812 61.891 14.5639V18.6279C61.891 18.9479 61.7737 19.1932 61.539 19.3639C61.3257 19.5346 61.0803 19.6199 60.803 19.6199C60.5257 19.6199 60.2697 19.5346 60.035 19.3639C59.8217 19.1932 59.715 18.9479 59.715 18.6279V11.1079C59.715 10.7452 59.8217 10.4786 60.035 10.3079C60.2697 10.1159 60.5257 10.0199 60.803 10.0199C61.0803 10.0199 61.3257 10.1159 61.539 10.3079C61.7737 10.4786 61.891 10.7452 61.891 11.1079C62.2537 10.7452 62.723 10.4466 63.299 10.2119C63.875 9.97722 64.419 9.85988 64.931 9.85988C66.1257 9.85988 67.075 10.2439 67.779 11.0119C68.483 11.7799 68.835 12.9105 68.835 14.4039V18.6279C68.835 18.9479 68.7177 19.1932 68.483 19.3639C68.2483 19.5346 68.003 19.6199 67.747 19.6199Z" fill="black"/>
<path d="M74.8623 19.6199C74.0303 19.6199 73.3476 19.3639 72.8143 18.8519C72.2809 18.3399 72.0143 17.5719 72.0143 16.5479V12.4839C72.0143 12.2706 71.9076 12.1639 71.6942 12.1639H71.1183C70.8409 12.1639 70.6063 12.0786 70.4142 11.9079C70.2222 11.7159 70.1263 11.4812 70.1263 11.2039C70.1263 10.9052 70.2222 10.6599 70.4142 10.4679C70.6063 10.2759 70.8409 10.1799 71.1183 10.1799H71.6942C71.9076 10.1799 72.0143 10.0732 72.0143 9.85988V7.17188C72.0143 6.87322 72.1102 6.63855 72.3022 6.46788C72.5156 6.27588 72.7716 6.17988 73.0703 6.17988C73.3903 6.17988 73.6462 6.27588 73.8382 6.46788C74.0516 6.63855 74.1582 6.87322 74.1582 7.17188V9.85988C74.1582 10.0732 74.2649 10.1799 74.4782 10.1799H76.2062C76.4622 10.1799 76.6862 10.2759 76.8783 10.4679C77.0703 10.6599 77.1663 10.9052 77.1663 11.2039C77.1663 11.4812 77.0703 11.7159 76.8783 11.9079C76.7076 12.0786 76.4729 12.1639 76.1743 12.1639H74.4782C74.2649 12.1639 74.1582 12.2706 74.1582 12.4839V16.2599C74.1582 17.1559 74.5209 17.6039 75.2463 17.6039C75.4596 17.6039 75.6836 17.5719 75.9183 17.5079C76.1529 17.4439 76.3129 17.4119 76.3983 17.4119C76.6969 17.4119 76.9209 17.5079 77.0703 17.6999C77.2409 17.8919 77.3262 18.1159 77.3262 18.3719C77.3262 18.5639 77.2729 18.7559 77.1663 18.9479C77.0596 19.1186 76.8889 19.2466 76.6543 19.3319C76.4196 19.4172 76.1209 19.4812 75.7583 19.5239C75.4169 19.5879 75.1183 19.6199 74.8623 19.6199Z" fill="black"/>
<path d="M83.0618 19.6199C82.1444 19.6199 81.3231 19.4066 80.5978 18.9799C79.8724 18.5532 79.3071 17.9666 78.9017 17.2199C78.4964 16.4519 78.2938 15.5986 78.2938 14.6599C78.2938 13.7425 78.4964 12.9212 78.9017 12.1959C79.3071 11.4706 79.8724 10.9052 80.5978 10.4999C81.3231 10.0732 82.1444 9.85988 83.0618 9.85988C83.6591 9.85988 84.1924 9.96655 84.6618 10.1799C85.1311 10.3719 85.5364 10.6279 85.8778 10.9479C85.9204 10.6492 86.0484 10.4252 86.2617 10.2759C86.4751 10.1052 86.7098 10.0199 86.9658 10.0199C87.2431 10.0199 87.4884 10.1159 87.7018 10.3079C87.9364 10.4786 88.0537 10.7452 88.0537 11.1079V18.6279C88.0537 18.9479 87.9364 19.1932 87.7018 19.3639C87.4884 19.5346 87.2431 19.6199 86.9658 19.6199C86.6884 19.6199 86.4324 19.5346 86.1978 19.3639C85.9844 19.1932 85.8778 18.9479 85.8778 18.6279V18.4999C85.5364 18.8412 85.1311 19.1079 84.6618 19.2999C84.1924 19.5132 83.6591 19.6199 83.0618 19.6199ZM83.2537 17.6359C84.0644 17.6359 84.7044 17.3692 85.1738 16.8359C85.6431 16.2812 85.8778 15.5559 85.8778 14.6599C85.8778 13.8066 85.6431 13.1239 85.1738 12.6119C84.7044 12.0999 84.0644 11.8439 83.2537 11.8439C82.4217 11.8439 81.7498 12.0999 81.2378 12.6119C80.7257 13.1239 80.4697 13.8066 80.4697 14.6599C80.4697 15.5559 80.7257 16.2812 81.2378 16.8359C81.7498 17.3692 82.4217 17.6359 83.2537 17.6359Z" fill="black"/>
<path d="M94.081 19.6199C93.249 19.6199 92.5663 19.3639 92.033 18.8519C91.4997 18.3399 91.233 17.5719 91.233 16.5479V12.4839C91.233 12.2706 91.1263 12.1639 90.913 12.1639H90.337C90.0597 12.1639 89.825 12.0786 89.633 11.9079C89.441 11.7159 89.345 11.4812 89.345 11.2039C89.345 10.9052 89.441 10.6599 89.633 10.4679C89.825 10.2759 90.0597 10.1799 90.337 10.1799H90.913C91.1263 10.1799 91.233 10.0732 91.233 9.85988V7.17188C91.233 6.87322 91.329 6.63855 91.521 6.46788C91.7343 6.27588 91.9903 6.17988 92.289 6.17988C92.609 6.17988 92.865 6.27588 93.057 6.46788C93.2703 6.63855 93.377 6.87322 93.377 7.17188V9.85988C93.377 10.0732 93.4837 10.1799 93.697 10.1799H95.425C95.681 10.1799 95.905 10.2759 96.097 10.4679C96.289 10.6599 96.385 10.9052 96.385 11.2039C96.385 11.4812 96.289 11.7159 96.097 11.9079C95.9263 12.0786 95.6917 12.1639 95.393 12.1639H93.697C93.4837 12.1639 93.377 12.2706 93.377 12.4839V16.2599C93.377 17.1559 93.7397 17.6039 94.465 17.6039C94.6783 17.6039 94.9023 17.5719 95.137 17.5079C95.3717 17.4439 95.5317 17.4119 95.617 17.4119C95.9157 17.4119 96.1397 17.5079 96.289 17.6999C96.4597 17.8919 96.545 18.1159 96.545 18.3719C96.545 18.5639 96.4917 18.7559 96.385 18.9479C96.2783 19.1186 96.1077 19.2466 95.873 19.3319C95.6383 19.4172 95.3397 19.4812 94.977 19.5239C94.6357 19.5879 94.337 19.6199 94.081 19.6199Z" fill="black"/>
<path d="M99.2725 19.6199C98.9952 19.6199 98.7392 19.5346 98.5045 19.3639C98.2912 19.1932 98.1845 18.9479 98.1845 18.6279V10.9479C98.1845 10.5852 98.2912 10.3185 98.5045 10.1479C98.7392 9.95588 98.9952 9.85988 99.2725 9.85988C99.5498 9.85988 99.7952 9.95588 100.008 10.1479C100.243 10.3185 100.36 10.5852 100.36 10.9479V18.6279C100.36 18.9479 100.243 19.1932 100.008 19.3639C99.7952 19.5346 99.5498 19.6199 99.2725 19.6199ZM99.3045 8.09988C98.8992 8.09988 98.5472 7.97188 98.2485 7.71588C97.9712 7.43855 97.8325 7.10788 97.8325 6.72388C97.8325 6.36122 97.9712 6.05188 98.2485 5.79588C98.5472 5.51855 98.8992 5.37988 99.3045 5.37988C99.6885 5.37988 100.019 5.51855 100.297 5.79588C100.574 6.05188 100.713 6.36122 100.713 6.72388C100.713 7.10788 100.574 7.43855 100.297 7.71588C100.019 7.97188 99.6885 8.09988 99.3045 8.09988Z" fill="black"/>
<path d="M107.285 19.6199C106.346 19.6199 105.493 19.4066 104.725 18.9799C103.978 18.5532 103.392 17.9666 102.965 17.2199C102.538 16.4519 102.325 15.5986 102.325 14.6599C102.325 13.7425 102.538 12.9212 102.965 12.1959C103.392 11.4706 103.978 10.9052 104.725 10.4999C105.493 10.0732 106.346 9.85988 107.285 9.85988C108.224 9.85988 109.066 10.0732 109.813 10.4999C110.56 10.9052 111.146 11.4706 111.573 12.1959C112.021 12.9212 112.245 13.7425 112.245 14.6599C112.245 15.5986 112.021 16.4519 111.573 17.2199C111.146 17.9666 110.56 18.5532 109.813 18.9799C109.066 19.4066 108.224 19.6199 107.285 19.6199ZM107.285 17.6359C108.117 17.6359 108.789 17.3692 109.301 16.8359C109.813 16.2812 110.069 15.5559 110.069 14.6599C110.069 13.8066 109.813 13.1239 109.301 12.6119C108.789 12.0999 108.117 11.8439 107.285 11.8439C106.432 11.8439 105.749 12.0999 105.237 12.6119C104.746 13.1239 104.501 13.8066 104.501 14.6599C104.501 15.5559 104.746 16.2812 105.237 16.8359C105.749 17.3692 106.432 17.6359 107.285 17.6359Z" fill="black"/>
<path d="M122.185 19.6199C121.907 19.6199 121.651 19.5346 121.417 19.3639C121.203 19.1932 121.096 18.9479 121.096 18.6279V14.5959C121.096 13.6572 120.883 12.9639 120.456 12.5159C120.051 12.0679 119.507 11.8439 118.825 11.8439C117.95 11.8439 117.31 12.1319 116.905 12.7079C116.521 13.2626 116.328 13.8812 116.328 14.5639V18.6279C116.328 18.9479 116.211 19.1932 115.977 19.3639C115.763 19.5346 115.518 19.6199 115.241 19.6199C114.963 19.6199 114.707 19.5346 114.473 19.3639C114.259 19.1932 114.152 18.9479 114.152 18.6279V11.1079C114.152 10.7452 114.259 10.4786 114.473 10.3079C114.707 10.1159 114.963 10.0199 115.241 10.0199C115.518 10.0199 115.763 10.1159 115.977 10.3079C116.211 10.4786 116.328 10.7452 116.328 11.1079C116.691 10.7452 117.161 10.4466 117.737 10.2119C118.312 9.97722 118.856 9.85988 119.368 9.85988C120.563 9.85988 121.512 10.2439 122.216 11.0119C122.921 11.7799 123.272 12.9105 123.272 14.4039V18.6279C123.272 18.9479 123.155 19.1932 122.921 19.3639C122.686 19.5346 122.44 19.6199 122.185 19.6199Z" fill="black"/>
</svg>
