<svg width="306" height="62" viewBox="0 0 306 62" fill="none" xmlns="http://www.w3.org/2000/svg">
<path d="M47.9728 36.5588C45.7445 37.9698 43.1852 38.7119 40.5775 38.7031C38.3929 38.6851 36.233 38.2196 34.2208 37.3333C32.67 39.6139 31.8401 42.3412 31.8464 45.1359V52.273C31.8469 52.5384 31.7951 52.8011 31.6941 53.0448C31.5931 53.2884 31.445 53.5079 31.2592 53.6895C31.0733 53.871 30.8536 54.0108 30.6137 54.1002C30.3738 54.1896 30.1188 54.2267 29.8645 54.2091C29.3868 54.1658 28.9424 53.9359 28.6205 53.5656C28.2987 53.1953 28.1231 52.712 28.129 52.2125V49.2018L19.1562 39.8551C17.8223 40.3735 16.4117 40.6446 14.9881 40.6562C13.0283 40.6612 11.1051 40.1026 9.4306 39.0419C4.368 35.8376 1.6427 28.4634 2.1701 19.3079C2.19666 18.8342 2.38926 18.3872 2.71134 18.0517C3.03342 17.7162 3.46255 17.5156 3.91727 17.4879C12.7065 16.9482 19.7858 19.7774 22.8526 25.051C24.0576 27.118 24.5836 29.5375 24.3512 31.9436C24.3368 32.13 24.2708 32.3081 24.1612 32.4563C24.0517 32.6045 23.9033 32.7164 23.734 32.7786C23.5647 32.8408 23.3817 32.8506 23.2071 32.8068C23.0326 32.763 22.8739 32.6674 22.7504 32.5317L18.2896 27.6672C17.9382 27.3194 17.4702 27.1284 16.9856 27.1348C16.5009 27.1413 16.0378 27.3447 15.6951 27.7018C15.3523 28.0588 15.157 28.5411 15.1508 29.046C15.1446 29.5509 15.328 30.0383 15.6618 30.4044L28.1801 43.7758C28.194 43.587 28.2103 43.3982 28.2289 43.2119C28.6354 39.6222 30.156 36.2689 32.5596 33.6619L44.3135 20.7237C44.6623 20.3607 44.8583 19.8683 44.8586 19.3547C44.8588 18.8412 44.6631 18.3486 44.3147 17.9853C43.9662 17.622 43.4935 17.4178 43.0005 17.4175C42.5075 17.4173 42.0346 17.6211 41.6858 17.9841L30.3013 30.5254C30.1874 30.6511 30.0432 30.7427 29.8837 30.7908C29.7242 30.8388 29.5553 30.8415 29.3946 30.7985C29.2338 30.7555 29.087 30.6684 28.9694 30.5464C28.8519 30.4243 28.7678 30.2716 28.7261 30.1043C27.6248 25.8738 28.1104 21.6627 30.213 18.047C34.3626 10.9123 44.0184 7.09332 56.0441 7.82905C56.4989 7.85671 56.928 8.05734 57.2501 8.39284C57.5722 8.72834 57.7648 9.17536 57.7913 9.64902C58.4883 22.1782 54.8221 32.2364 47.9728 36.5588Z" fill="white"/>
<path d="M82.3298 48.6233C81.6425 48.6233 81.0081 48.3589 80.4265 47.8302C79.845 47.3544 79.5542 46.7729 79.5542 46.0856V20.4704C79.5542 19.0429 80.0036 17.9591 80.9024 17.2189C81.8011 16.4787 82.8057 16.1086 83.9159 16.1086H92.3221C94.1197 16.1086 95.7851 16.4787 97.3183 17.2189C98.9044 17.9062 100.173 18.9372 101.125 20.3118C102.077 21.6864 102.552 23.3782 102.552 25.3872C102.552 28.5065 101.548 30.9914 99.5388 32.8418C97.5826 34.6922 95.2035 35.6174 92.4014 35.6174H87.0881C85.7663 35.6174 85.1055 36.4105 85.1055 37.9965V46.0856C85.1055 46.7729 84.8147 47.3544 84.2331 47.8302C83.7044 48.3589 83.07 48.6233 82.3298 48.6233ZM86.6916 30.8592H91.5291C92.8508 30.8592 94.1197 30.4627 95.3357 29.6696C96.6046 28.8766 97.239 27.502 97.239 25.5458C97.239 24.0126 96.6574 22.8759 95.4943 22.1358C94.384 21.3427 93.168 20.9462 91.8463 20.9462H86.9295C85.6077 20.9462 84.9469 21.5806 84.9469 22.8495V28.718C84.9469 30.1455 85.5284 30.8592 86.6916 30.8592Z" fill="white"/>
<path d="M110.431 48.6233C109.744 48.6233 109.11 48.4118 108.528 47.9888C107.999 47.5659 107.735 46.9579 107.735 46.1649V16.0293C107.735 15.1306 107.999 14.4697 108.528 14.0467C109.11 13.5709 109.744 13.333 110.431 13.333C111.119 13.333 111.727 13.5709 112.255 14.0467C112.837 14.4697 113.128 15.1306 113.128 16.0293V46.1649C113.128 46.9579 112.837 47.5659 112.255 47.9888C111.727 48.4118 111.119 48.6233 110.431 48.6233Z" fill="white"/>
<path d="M129.892 48.6233C127.618 48.6233 125.583 48.0946 123.785 47.0372C121.988 45.9798 120.587 44.5259 119.582 42.6755C118.578 40.7722 118.075 38.6574 118.075 36.3312C118.075 34.0578 118.578 32.0223 119.582 30.2248C120.587 28.4272 121.988 27.0262 123.785 26.0216C125.583 24.9643 127.618 24.4356 129.892 24.4356C131.372 24.4356 132.694 24.6999 133.857 25.2286C135.02 25.7044 136.025 26.3389 136.871 27.1319C136.976 26.3917 137.293 25.8366 137.822 25.4665C138.351 25.0436 138.932 24.8321 139.567 24.8321C140.254 24.8321 140.862 25.07 141.391 25.5458C141.972 25.9688 142.263 26.6296 142.263 27.5284V46.1649C142.263 46.9579 141.972 47.5659 141.391 47.9888C140.862 48.4118 140.254 48.6233 139.567 48.6233C138.88 48.6233 138.245 48.4118 137.664 47.9888C137.135 47.5659 136.871 46.9579 136.871 46.1649V45.8476C136.025 46.6936 135.02 47.3544 133.857 47.8302C132.694 48.3589 131.372 48.6233 129.892 48.6233ZM130.368 43.7064C132.377 43.7064 133.963 43.0456 135.126 41.7238C136.289 40.3492 136.871 38.5517 136.871 36.3312C136.871 34.2164 136.289 32.5246 135.126 31.2557C133.963 29.9868 132.377 29.3524 130.368 29.3524C128.306 29.3524 126.64 29.9868 125.371 31.2557C124.103 32.5246 123.468 34.2164 123.468 36.3312C123.468 38.5517 124.103 40.3492 125.371 41.7238C126.64 43.0456 128.306 43.7064 130.368 43.7064Z" fill="white"/>
<path d="M168.144 48.6233C167.457 48.6233 166.822 48.4118 166.241 47.9888C165.712 47.5659 165.448 46.9579 165.448 46.1649V36.1726C165.448 33.8463 164.919 32.1281 163.862 31.0178C162.857 29.9075 161.509 29.3524 159.817 29.3524C157.65 29.3524 156.064 30.0661 155.059 31.4936C154.107 32.8682 153.632 34.4014 153.632 36.0933V46.1649C153.632 46.9579 153.341 47.5659 152.759 47.9888C152.231 48.4118 151.623 48.6233 150.935 48.6233C150.248 48.6233 149.613 48.4118 149.032 47.9888C148.503 47.5659 148.239 46.9579 148.239 46.1649V27.5284C148.239 26.6296 148.503 25.9688 149.032 25.5458C149.613 25.07 150.248 24.8321 150.935 24.8321C151.623 24.8321 152.231 25.07 152.759 25.5458C153.341 25.9688 153.632 26.6296 153.632 27.5284C154.53 26.6296 155.693 25.8895 157.121 25.3079C158.548 24.7263 159.897 24.4356 161.165 24.4356C164.126 24.4356 166.479 25.3872 168.223 27.2905C169.968 29.1938 170.841 31.9959 170.841 35.6967V46.1649C170.841 46.9579 170.55 47.5659 169.968 47.9888C169.387 48.4118 168.779 48.6233 168.144 48.6233Z" fill="white"/>
<path d="M185.778 48.6233C183.716 48.6233 182.024 47.9888 180.702 46.72C179.38 45.4511 178.719 43.5478 178.719 41.0101V30.9385C178.719 30.4098 178.455 30.1455 177.926 30.1455H176.499C175.812 30.1455 175.23 29.934 174.754 29.511C174.278 29.0352 174.041 28.4536 174.041 27.7663C174.041 27.0262 174.278 26.4182 174.754 25.9423C175.23 25.4665 175.812 25.2286 176.499 25.2286H177.926C178.455 25.2286 178.719 24.9643 178.719 24.4356V17.774C178.719 17.0339 178.957 16.4523 179.433 16.0293C179.962 15.5535 180.596 15.3156 181.337 15.3156C182.13 15.3156 182.764 15.5535 183.24 16.0293C183.769 16.4523 184.033 17.0339 184.033 17.774V24.4356C184.033 24.9643 184.297 25.2286 184.826 25.2286H189.108C189.743 25.2286 190.298 25.4665 190.774 25.9423C191.25 26.4182 191.487 27.0262 191.487 27.7663C191.487 28.4536 191.25 29.0352 190.774 29.511C190.351 29.934 189.769 30.1455 189.029 30.1455H184.826C184.297 30.1455 184.033 30.4098 184.033 30.9385V40.2964C184.033 42.5169 184.932 43.6271 186.729 43.6271C187.258 43.6271 187.813 43.5478 188.395 43.3892C188.976 43.2306 189.373 43.1513 189.584 43.1513C190.324 43.1513 190.879 43.3892 191.25 43.865C191.672 44.3409 191.884 44.896 191.884 45.5304C191.884 46.0062 191.752 46.4821 191.487 46.9579C191.223 47.3809 190.8 47.6981 190.219 47.9095C189.637 48.121 188.897 48.2796 187.998 48.3854C187.152 48.544 186.412 48.6233 185.778 48.6233Z" fill="white"/>
<path d="M206.098 48.6233C203.825 48.6233 201.789 48.0946 199.992 47.0372C198.194 45.9798 196.793 44.5259 195.788 42.6755C194.784 40.7722 194.282 38.6574 194.282 36.3312C194.282 34.0578 194.784 32.0223 195.788 30.2248C196.793 28.4272 198.194 27.0262 199.992 26.0216C201.789 24.9643 203.825 24.4356 206.098 24.4356C207.578 24.4356 208.9 24.6999 210.063 25.2286C211.226 25.7044 212.231 26.3389 213.077 27.1319C213.182 26.3917 213.5 25.8366 214.028 25.4665C214.557 25.0436 215.139 24.8321 215.773 24.8321C216.46 24.8321 217.068 25.07 217.597 25.5458C218.179 25.9688 218.469 26.6296 218.469 27.5284V46.1649C218.469 46.9579 218.179 47.5659 217.597 47.9888C217.068 48.4118 216.46 48.6233 215.773 48.6233C215.086 48.6233 214.451 48.4118 213.87 47.9888C213.341 47.5659 213.077 46.9579 213.077 46.1649V45.8476C212.231 46.6936 211.226 47.3544 210.063 47.8302C208.9 48.3589 207.578 48.6233 206.098 48.6233ZM206.574 43.7064C208.583 43.7064 210.169 43.0456 211.332 41.7238C212.495 40.3492 213.077 38.5517 213.077 36.3312C213.077 34.2164 212.495 32.5246 211.332 31.2557C210.169 29.9868 208.583 29.3524 206.574 29.3524C204.512 29.3524 202.846 29.9868 201.578 31.2557C200.309 32.5246 199.674 34.2164 199.674 36.3312C199.674 38.5517 200.309 40.3492 201.578 41.7238C202.846 43.0456 204.512 43.7064 206.574 43.7064Z" fill="white"/>
<path d="M233.406 48.6233C231.344 48.6233 229.653 47.9888 228.331 46.72C227.009 45.4511 226.348 43.5478 226.348 41.0101V30.9385C226.348 30.4098 226.084 30.1455 225.555 30.1455H224.128C223.441 30.1455 222.859 29.934 222.383 29.511C221.907 29.0352 221.669 28.4536 221.669 27.7663C221.669 27.0262 221.907 26.4182 222.383 25.9423C222.859 25.4665 223.441 25.2286 224.128 25.2286H225.555C226.084 25.2286 226.348 24.9643 226.348 24.4356V17.774C226.348 17.0339 226.586 16.4523 227.062 16.0293C227.591 15.5535 228.225 15.3156 228.965 15.3156C229.758 15.3156 230.393 15.5535 230.869 16.0293C231.397 16.4523 231.662 17.0339 231.662 17.774V24.4356C231.662 24.9643 231.926 25.2286 232.455 25.2286H236.737C237.372 25.2286 237.927 25.4665 238.403 25.9423C238.878 26.4182 239.116 27.0262 239.116 27.7663C239.116 28.4536 238.878 29.0352 238.403 29.511C237.98 29.934 237.398 30.1455 236.658 30.1455H232.455C231.926 30.1455 231.662 30.4098 231.662 30.9385V40.2964C231.662 42.5169 232.56 43.6271 234.358 43.6271C234.887 43.6271 235.442 43.5478 236.023 43.3892C236.605 43.2306 237.002 43.1513 237.213 43.1513C237.953 43.1513 238.508 43.3892 238.878 43.865C239.301 44.3409 239.513 44.896 239.513 45.5304C239.513 46.0062 239.381 46.4821 239.116 46.9579C238.852 47.3809 238.429 47.6981 237.847 47.9095C237.266 48.121 236.526 48.2796 235.627 48.3854C234.781 48.544 234.041 48.6233 233.406 48.6233Z" fill="white"/>
<path d="M246.272 48.6233C245.585 48.6233 244.951 48.4118 244.369 47.9888C243.84 47.5659 243.576 46.9579 243.576 46.1649V27.1319C243.576 26.2331 243.84 25.5723 244.369 25.1493C244.951 24.6735 245.585 24.4356 246.272 24.4356C246.96 24.4356 247.568 24.6735 248.096 25.1493C248.678 25.5723 248.969 26.2331 248.969 27.1319V46.1649C248.969 46.9579 248.678 47.5659 248.096 47.9888C247.568 48.4118 246.96 48.6233 246.272 48.6233ZM246.352 20.0738C245.347 20.0738 244.475 19.7566 243.734 19.1222C243.047 18.4349 242.704 17.6154 242.704 16.6638C242.704 15.765 243.047 14.9984 243.734 14.364C244.475 13.6767 245.347 13.333 246.352 13.333C247.303 13.333 248.123 13.6767 248.81 14.364C249.497 14.9984 249.841 15.765 249.841 16.6638C249.841 17.6154 249.497 18.4349 248.81 19.1222C248.123 19.7566 247.303 20.0738 246.352 20.0738Z" fill="white"/>
<path d="M266.129 48.6233C263.803 48.6233 261.688 48.0946 259.785 47.0372C257.934 45.9798 256.481 44.5259 255.423 42.6755C254.366 40.7722 253.837 38.6574 253.837 36.3312C253.837 34.0578 254.366 32.0223 255.423 30.2248C256.481 28.4272 257.934 27.0262 259.785 26.0216C261.688 24.9643 263.803 24.4356 266.129 24.4356C268.455 24.4356 270.544 24.9643 272.394 26.0216C274.245 27.0262 275.699 28.4272 276.756 30.2248C277.866 32.0223 278.421 34.0578 278.421 36.3312C278.421 38.6574 277.866 40.7722 276.756 42.6755C275.699 44.5259 274.245 45.9798 272.394 47.0372C270.544 48.0946 268.455 48.6233 266.129 48.6233ZM266.129 43.7064C268.191 43.7064 269.856 43.0456 271.125 41.7238C272.394 40.3492 273.029 38.5517 273.029 36.3312C273.029 34.2164 272.394 32.5246 271.125 31.2557C269.856 29.9868 268.191 29.3524 266.129 29.3524C264.014 29.3524 262.323 29.9868 261.054 31.2557C259.838 32.5246 259.23 34.2164 259.23 36.3312C259.23 38.5517 259.838 40.3492 261.054 41.7238C262.323 43.0456 264.014 43.7064 266.129 43.7064Z" fill="white"/>
<path d="M303.054 48.6233C302.367 48.6233 301.732 48.4118 301.151 47.9888C300.622 47.5659 300.358 46.9579 300.358 46.1649V36.1726C300.358 33.8463 299.829 32.1281 298.771 31.0178C297.767 29.9075 296.419 29.3524 294.727 29.3524C292.559 29.3524 290.973 30.0661 289.969 31.4936C289.017 32.8682 288.541 34.4014 288.541 36.0933V46.1649C288.541 46.9579 288.25 47.5659 287.669 47.9888C287.14 48.4118 286.532 48.6233 285.845 48.6233C285.158 48.6233 284.523 48.4118 283.942 47.9888C283.413 47.5659 283.149 46.9579 283.149 46.1649V27.5284C283.149 26.6296 283.413 25.9688 283.942 25.5458C284.523 25.07 285.158 24.8321 285.845 24.8321C286.532 24.8321 287.14 25.07 287.669 25.5458C288.25 25.9688 288.541 26.6296 288.541 27.5284C289.44 26.6296 290.603 25.8895 292.031 25.3079C293.458 24.7263 294.806 24.4356 296.075 24.4356C299.036 24.4356 301.388 25.3872 303.133 27.2905C304.878 29.1938 305.75 31.9959 305.75 35.6967V46.1649C305.75 46.9579 305.459 47.5659 304.878 47.9888C304.296 48.4118 303.688 48.6233 303.054 48.6233Z" fill="white"/>
</svg>
