<svg width="32" height="33" viewBox="0 0 32 33" fill="none" xmlns="http://www.w3.org/2000/svg">
<rect y="0.5" width="32" height="32" rx="16" fill="#9BA64B"/>
<path d="M22 14.0254H10C9.85082 14.0254 9.70774 13.9661 9.60225 13.8606C9.49676 13.7551 9.4375 13.6121 9.4375 13.4629C9.4375 13.3137 9.49676 13.1706 9.60225 13.0651C9.70774 12.9597 9.85082 12.9004 10 12.9004H22C22.1492 12.9004 22.2923 12.9597 22.3977 13.0651C22.5032 13.1706 22.5625 13.3137 22.5625 13.4629C22.5625 13.6121 22.5032 13.7551 22.3977 13.8606C22.2923 13.9661 22.1492 14.0254 22 14.0254Z" fill="#0F2615"/>
<path d="M19.33 23.063H12.67C12.4323 23.0792 12.1938 23.0481 11.9682 22.9715C11.7426 22.8949 11.5345 22.7742 11.3559 22.6166C11.1773 22.4589 11.0318 22.2673 10.9278 22.053C10.8238 21.8387 10.7633 21.6058 10.75 21.368V13.5005C10.75 13.3513 10.8093 13.2082 10.9148 13.1027C11.0202 12.9972 11.1633 12.938 11.3125 12.938C11.4617 12.938 11.6048 12.9972 11.7102 13.1027C11.8157 13.2082 11.875 13.3513 11.875 13.5005V21.368C11.875 21.6755 12.2275 21.938 12.625 21.938H19.285C19.705 21.938 20.035 21.6755 20.035 21.368V13.5005C20.035 13.3393 20.099 13.1848 20.2129 13.0709C20.3269 12.957 20.4814 12.893 20.6425 12.893C20.8036 12.893 20.9581 12.957 21.0721 13.0709C21.186 13.1848 21.25 13.3393 21.25 13.5005V21.368C21.2367 21.6058 21.1762 21.8387 21.0722 22.053C20.9682 22.2673 20.8227 22.4589 20.6441 22.6166C20.4655 22.7742 20.2574 22.8949 20.0318 22.9715C19.8062 23.0481 19.5677 23.0792 19.33 23.063ZM19.42 13.313C19.3459 13.314 19.2723 13.3001 19.2036 13.2722C19.1349 13.2443 19.0724 13.2029 19.02 13.1505C18.9676 13.098 18.9262 13.0356 18.8983 12.9669C18.8704 12.8982 18.8565 12.8246 18.8575 12.7505V11.633C18.8575 11.3255 18.4975 11.063 18.1075 11.063H13.915C13.5025 11.063 13.165 11.3255 13.165 11.633V12.7505C13.165 12.8996 13.1057 13.0427 13.0002 13.1482C12.8948 13.2537 12.7517 13.313 12.6025 13.313C12.4533 13.313 12.3102 13.2537 12.2048 13.1482C12.0993 13.0427 12.04 12.8996 12.04 12.7505V11.633C12.069 11.1614 12.2815 10.72 12.632 10.4032C12.9824 10.0864 13.443 9.91943 13.915 9.93796H18.085C18.5608 9.91335 19.0272 10.0776 19.3825 10.3951C19.7378 10.7125 19.9535 11.1574 19.9825 11.633V12.7505C19.9835 12.825 19.9697 12.8989 19.9419 12.968C19.914 13.0371 19.8728 13.1 19.8204 13.1531C19.7681 13.2061 19.7057 13.2482 19.637 13.2769C19.5683 13.3057 19.4945 13.3205 19.42 13.3205V13.313Z" fill="#0F2615"/>
<path d="M14.665 20.2491C14.5165 20.2471 14.3745 20.1872 14.2694 20.0822C14.1644 19.9771 14.1045 19.8351 14.1025 19.6866V16.2891C14.1025 16.1399 14.1618 15.9968 14.2673 15.8913C14.3728 15.7858 14.5159 15.7266 14.665 15.7266C14.8142 15.7266 14.9573 15.7858 15.0628 15.8913C15.1683 15.9968 15.2275 16.1399 15.2275 16.2891V19.6791C15.2285 19.7536 15.2147 19.8275 15.1869 19.8966C15.1591 19.9657 15.1178 20.0286 15.0655 20.0817C15.0131 20.1347 14.9508 20.1768 14.882 20.2055C14.8133 20.2343 14.7395 20.2491 14.665 20.2491ZM17.335 20.2491C17.1859 20.2491 17.0428 20.1898 16.9373 20.0843C16.8318 19.9788 16.7725 19.8357 16.7725 19.6866V16.2891C16.7725 16.1399 16.8318 15.9968 16.9373 15.8913C17.0428 15.7858 17.1859 15.7266 17.335 15.7266C17.4842 15.7266 17.6273 15.7858 17.7328 15.8913C17.8383 15.9968 17.8975 16.1399 17.8975 16.2891V19.6791C17.8976 19.8289 17.8385 19.9728 17.7333 20.0795C17.628 20.1862 17.4849 20.2471 17.335 20.2491Z" fill="#0F2615"/>
</svg>
