<svg width="118" height="18" viewBox="0 0 118 18" fill="none" xmlns="http://www.w3.org/2000/svg">
<path d="M16.4879 8.0422L13.3168 10.8097L14.2667 14.93C14.317 15.1454 14.3027 15.3708 14.2255 15.5781C14.1483 15.7854 14.0118 15.9654 13.8329 16.0955C13.654 16.2256 13.4408 16.3001 13.2198 16.3096C12.9988 16.3192 12.7799 16.2634 12.5905 16.1492L8.99681 13.9695L5.41087 16.1492C5.22143 16.2634 5.00254 16.3192 4.78156 16.3096C4.56058 16.3001 4.34732 16.2256 4.16845 16.0955C3.98958 15.9654 3.85302 15.7854 3.77586 15.5781C3.6987 15.3708 3.68436 15.1454 3.73462 14.93L4.68314 10.8139L1.51134 8.0422C1.34358 7.89752 1.22228 7.70652 1.16263 7.49317C1.10299 7.27981 1.10767 7.0536 1.17607 6.84289C1.24448 6.63218 1.37358 6.44636 1.54717 6.30873C1.72077 6.1711 1.93113 6.08779 2.15189 6.06923L6.33267 5.70712L7.96462 1.81463C8.04985 1.61038 8.1936 1.43591 8.37777 1.3132C8.56195 1.19048 8.77831 1.125 8.99963 1.125C9.22094 1.125 9.4373 1.19048 9.62148 1.3132C9.80565 1.43591 9.9494 1.61038 10.0346 1.81463L11.6715 5.70712L15.8509 6.06923C16.0716 6.08779 16.282 6.1711 16.4556 6.30873C16.6292 6.44636 16.7583 6.63218 16.8267 6.84289C16.8951 7.0536 16.8998 7.27981 16.8401 7.49317C16.7805 7.70652 16.6592 7.89752 16.4914 8.0422H16.4879Z" fill="#848C42"/>
<path d="M41.4879 8.0422L38.3168 10.8097L39.2667 14.93C39.317 15.1454 39.3027 15.3708 39.2255 15.5781C39.1483 15.7854 39.0118 15.9654 38.8329 16.0955C38.654 16.2256 38.4408 16.3001 38.2198 16.3096C37.9988 16.3192 37.7799 16.2634 37.5905 16.1492L33.9968 13.9695L30.4109 16.1492C30.2214 16.2634 30.0025 16.3192 29.7816 16.3096C29.5606 16.3001 29.3473 16.2256 29.1684 16.0955C28.9896 15.9654 28.853 15.7854 28.7759 15.5781C28.6987 15.3708 28.6844 15.1454 28.7346 14.93L29.6831 10.8139L26.5113 8.0422C26.3436 7.89752 26.2223 7.70652 26.1626 7.49317C26.103 7.27981 26.1077 7.0536 26.1761 6.84289C26.2445 6.63218 26.3736 6.44636 26.5472 6.30873C26.7208 6.1711 26.9311 6.08779 27.1519 6.06923L31.3327 5.70712L32.9646 1.81463C33.0498 1.61038 33.1936 1.43591 33.3778 1.3132C33.5619 1.19048 33.7783 1.125 33.9996 1.125C34.2209 1.125 34.4373 1.19048 34.6215 1.3132C34.8057 1.43591 34.9494 1.61038 35.0346 1.81463L36.6715 5.70712L40.8509 6.06923C41.0716 6.08779 41.282 6.1711 41.4556 6.30873C41.6292 6.44636 41.7583 6.63218 41.8267 6.84289C41.8951 7.0536 41.8998 7.27981 41.8401 7.49317C41.7805 7.70652 41.6592 7.89752 41.4914 8.0422H41.4879Z" fill="#848C42"/>
<path d="M66.4879 8.0422L63.3168 10.8097L64.2667 14.93C64.317 15.1454 64.3027 15.3708 64.2255 15.5781C64.1483 15.7854 64.0118 15.9654 63.8329 16.0955C63.654 16.2256 63.4408 16.3001 63.2198 16.3096C62.9988 16.3192 62.7799 16.2634 62.5905 16.1492L58.9968 13.9695L55.4109 16.1492C55.2214 16.2634 55.0025 16.3192 54.7816 16.3096C54.5606 16.3001 54.3473 16.2256 54.1684 16.0955C53.9896 15.9654 53.853 15.7854 53.7759 15.5781C53.6987 15.3708 53.6844 15.1454 53.7346 14.93L54.6831 10.8139L51.5113 8.0422C51.3436 7.89752 51.2223 7.70652 51.1626 7.49317C51.103 7.27981 51.1077 7.0536 51.1761 6.84289C51.2445 6.63218 51.3736 6.44636 51.5472 6.30873C51.7208 6.1711 51.9311 6.08779 52.1519 6.06923L56.3327 5.70712L57.9646 1.81463C58.0498 1.61038 58.1936 1.43591 58.3778 1.3132C58.5619 1.19048 58.7783 1.125 58.9996 1.125C59.2209 1.125 59.4373 1.19048 59.6215 1.3132C59.8057 1.43591 59.9494 1.61038 60.0346 1.81463L61.6715 5.70712L65.8509 6.06923C66.0716 6.08779 66.282 6.1711 66.4556 6.30873C66.6292 6.44636 66.7583 6.63218 66.8267 6.84289C66.8951 7.0536 66.8998 7.27981 66.8401 7.49317C66.7805 7.70652 66.6592 7.89752 66.4914 8.0422H66.4879Z" fill="#848C42"/>
<path d="M91.4879 8.0422L88.3168 10.8097L89.2667 14.93C89.317 15.1454 89.3027 15.3708 89.2255 15.5781C89.1483 15.7854 89.0118 15.9654 88.8329 16.0955C88.654 16.2256 88.4408 16.3001 88.2198 16.3096C87.9988 16.3192 87.7799 16.2634 87.5905 16.1492L83.9968 13.9695L80.4109 16.1492C80.2214 16.2634 80.0025 16.3192 79.7816 16.3096C79.5606 16.3001 79.3473 16.2256 79.1684 16.0955C78.9896 15.9654 78.853 15.7854 78.7759 15.5781C78.6987 15.3708 78.6844 15.1454 78.7346 14.93L79.6831 10.8139L76.5113 8.0422C76.3436 7.89752 76.2223 7.70652 76.1626 7.49317C76.103 7.27981 76.1077 7.0536 76.1761 6.84289C76.2445 6.63218 76.3736 6.44636 76.5472 6.30873C76.7208 6.1711 76.9311 6.08779 77.1519 6.06923L81.3327 5.70712L82.9646 1.81463C83.0498 1.61038 83.1936 1.43591 83.3778 1.3132C83.5619 1.19048 83.7783 1.125 83.9996 1.125C84.2209 1.125 84.4373 1.19048 84.6215 1.3132C84.8057 1.43591 84.9494 1.61038 85.0346 1.81463L86.6715 5.70712L90.8509 6.06923C91.0716 6.08779 91.282 6.1711 91.4556 6.30873C91.6292 6.44636 91.7583 6.63218 91.8267 6.84289C91.8951 7.0536 91.8998 7.27981 91.8401 7.49317C91.7805 7.70652 91.6592 7.89752 91.4914 8.0422H91.4879Z" fill="#848C42"/>
<path d="M116.488 8.0422L113.317 10.8097L114.267 14.93C114.317 15.1454 114.303 15.3708 114.225 15.5781C114.148 15.7854 114.012 15.9654 113.833 16.0955C113.654 16.2256 113.441 16.3001 113.22 16.3096C112.999 16.3192 112.78 16.2634 112.59 16.1492L108.997 13.9695L105.411 16.1492C105.221 16.2634 105.003 16.3192 104.782 16.3096C104.561 16.3001 104.347 16.2256 104.168 16.0955C103.99 15.9654 103.853 15.7854 103.776 15.5781C103.699 15.3708 103.684 15.1454 103.735 14.93L104.683 10.8139L101.511 8.0422C101.344 7.89752 101.222 7.70652 101.163 7.49317C101.103 7.27981 101.108 7.0536 101.176 6.84289C101.244 6.63218 101.374 6.44636 101.547 6.30873C101.721 6.1711 101.931 6.08779 102.152 6.06923L106.333 5.70712L107.965 1.81463C108.05 1.61038 108.194 1.43591 108.378 1.3132C108.562 1.19048 108.778 1.125 109 1.125C109.221 1.125 109.437 1.19048 109.621 1.3132C109.806 1.43591 109.949 1.61038 110.035 1.81463L111.671 5.70712L115.851 6.06923C116.072 6.08779 116.282 6.1711 116.456 6.30873C116.629 6.44636 116.758 6.63218 116.827 6.84289C116.895 7.0536 116.9 7.27981 116.84 7.49317C116.78 7.70652 116.659 7.89752 116.491 8.0422H116.488Z" fill="#D9D389"/>
</svg>
