<svg width="180" height="56" viewBox="0 0 180 56" fill="none" xmlns="http://www.w3.org/2000/svg">
<rect x="0.5" y="0.5" width="179" height="55" rx="27.5" stroke="#0F2615"/>
<path d="M33.8864 21.8636L37.3409 31.6591H37.4773L40.9318 21.8636H42.4091L38.1364 33.5H36.6818L32.4091 21.8636H33.8864ZM44.0398 33.5V24.7727H45.3807V33.5H44.0398ZM44.7216 23.3182C44.4602 23.3182 44.2348 23.2292 44.0455 23.0511C43.8598 22.8731 43.767 22.6591 43.767 22.4091C43.767 22.1591 43.8598 21.9451 44.0455 21.767C44.2348 21.589 44.4602 21.5 44.7216 21.5C44.983 21.5 45.2064 21.589 45.392 21.767C45.5814 21.9451 45.6761 22.1591 45.6761 22.4091C45.6761 22.6591 45.5814 22.8731 45.392 23.0511C45.2064 23.2292 44.983 23.3182 44.7216 23.3182ZM51.4957 33.6818C50.6548 33.6818 49.9295 33.4962 49.3196 33.125C48.7135 32.75 48.2457 32.2273 47.9162 31.5568C47.5904 30.8826 47.4276 30.0985 47.4276 29.2045C47.4276 28.3106 47.5904 27.5227 47.9162 26.8409C48.2457 26.1553 48.7041 25.6212 49.2912 25.2386C49.8821 24.8523 50.5715 24.6591 51.3594 24.6591C51.8139 24.6591 52.2628 24.7348 52.706 24.8864C53.1491 25.0379 53.5526 25.2841 53.9162 25.625C54.2798 25.9621 54.5696 26.4091 54.7855 26.9659C55.0014 27.5227 55.1094 28.2083 55.1094 29.0227V29.5909H48.3821V28.4318H53.7457C53.7457 27.9394 53.6473 27.5 53.4503 27.1136C53.2571 26.7273 52.9806 26.4223 52.6207 26.1989C52.2647 25.9754 51.8442 25.8636 51.3594 25.8636C50.8253 25.8636 50.3632 25.9962 49.973 26.2614C49.5866 26.5227 49.2893 26.8636 49.081 27.2841C48.8726 27.7045 48.7685 28.1553 48.7685 28.6364V29.4091C48.7685 30.0682 48.8821 30.6269 49.1094 31.0852C49.3404 31.5398 49.6605 31.8864 50.0696 32.125C50.4787 32.3598 50.9541 32.4773 51.4957 32.4773C51.848 32.4773 52.1662 32.428 52.4503 32.3295C52.7382 32.2273 52.9863 32.0758 53.1946 31.875C53.4029 31.6705 53.5639 31.4167 53.6776 31.1136L54.973 31.4773C54.8366 31.9167 54.6075 32.303 54.2855 32.6364C53.9635 32.9659 53.5658 33.2235 53.0923 33.4091C52.6188 33.5909 52.0866 33.6818 51.4957 33.6818ZM59.1264 33.5L56.4673 24.7727H57.8764L59.7628 31.4545H59.8537L61.7173 24.7727H63.1491L64.9901 31.4318H65.081L66.9673 24.7727H68.3764L65.7173 33.5H64.3991L62.4901 26.7955H62.3537L60.4446 33.5H59.1264ZM77.9446 33.6818C77.2173 33.6818 76.5753 33.4981 76.0185 33.1307C75.4616 32.7595 75.026 32.2367 74.7116 31.5625C74.3973 30.8845 74.2401 30.0833 74.2401 29.1591C74.2401 28.2424 74.3973 27.447 74.7116 26.7727C75.026 26.0985 75.4635 25.5777 76.0241 25.2102C76.5848 24.8428 77.2325 24.6591 77.9673 24.6591C78.5355 24.6591 78.9844 24.7538 79.3139 24.9432C79.6473 25.1288 79.901 25.3409 80.0753 25.5795C80.2533 25.8144 80.3916 26.0076 80.4901 26.1591H80.6037V21.8636H81.9446V33.5H80.6491V32.1591H80.4901C80.3916 32.3182 80.2514 32.5189 80.0696 32.7614C79.8878 33 79.6283 33.214 79.2912 33.4034C78.9541 33.589 78.5052 33.6818 77.9446 33.6818ZM78.1264 32.4773C78.6643 32.4773 79.1188 32.3371 79.4901 32.0568C79.8613 31.7727 80.1435 31.3807 80.3366 30.8807C80.5298 30.3769 80.6264 29.7955 80.6264 29.1364C80.6264 28.4848 80.5317 27.9148 80.3423 27.4261C80.1529 26.9337 79.8726 26.5511 79.5014 26.2784C79.1302 26.0019 78.6719 25.8636 78.1264 25.8636C77.5582 25.8636 77.0848 26.0095 76.706 26.3011C76.331 26.589 76.0488 26.9811 75.8594 27.4773C75.6738 27.9697 75.581 28.5227 75.581 29.1364C75.581 29.7576 75.6757 30.322 75.8651 30.8295C76.0582 31.3333 76.3423 31.7348 76.7173 32.0341C77.0961 32.3295 77.5658 32.4773 78.1264 32.4773ZM88.2457 33.6818C87.4048 33.6818 86.6795 33.4962 86.0696 33.125C85.4635 32.75 84.9957 32.2273 84.6662 31.5568C84.3404 30.8826 84.1776 30.0985 84.1776 29.2045C84.1776 28.3106 84.3404 27.5227 84.6662 26.8409C84.9957 26.1553 85.4541 25.6212 86.0412 25.2386C86.6321 24.8523 87.3215 24.6591 88.1094 24.6591C88.5639 24.6591 89.0128 24.7348 89.456 24.8864C89.8991 25.0379 90.3026 25.2841 90.6662 25.625C91.0298 25.9621 91.3196 26.4091 91.5355 26.9659C91.7514 27.5227 91.8594 28.2083 91.8594 29.0227V29.5909H85.1321V28.4318H90.4957C90.4957 27.9394 90.3973 27.5 90.2003 27.1136C90.0071 26.7273 89.7306 26.4223 89.3707 26.1989C89.0147 25.9754 88.5942 25.8636 88.1094 25.8636C87.5753 25.8636 87.1132 25.9962 86.723 26.2614C86.3366 26.5227 86.0393 26.8636 85.831 27.2841C85.6226 27.7045 85.5185 28.1553 85.5185 28.6364V29.4091C85.5185 30.0682 85.6321 30.6269 85.8594 31.0852C86.0904 31.5398 86.4105 31.8864 86.8196 32.125C87.2287 32.3598 87.7041 32.4773 88.2457 32.4773C88.598 32.4773 88.9162 32.428 89.2003 32.3295C89.4882 32.2273 89.7363 32.0758 89.9446 31.875C90.1529 31.6705 90.3139 31.4167 90.4276 31.1136L91.723 31.4773C91.5866 31.9167 91.3575 32.303 91.0355 32.6364C90.7135 32.9659 90.3158 33.2235 89.8423 33.4091C89.3688 33.5909 88.8366 33.6818 88.2457 33.6818ZM97.6946 24.7727V25.9091H93.1719V24.7727H97.6946ZM94.4901 22.6818H95.831V31C95.831 31.3788 95.8859 31.6629 95.9957 31.8523C96.1094 32.0379 96.2533 32.1629 96.4276 32.2273C96.6056 32.2879 96.7931 32.3182 96.9901 32.3182C97.1378 32.3182 97.259 32.3106 97.3537 32.2955C97.4484 32.2765 97.5241 32.2614 97.581 32.25L97.8537 33.4545C97.7628 33.4886 97.6359 33.5227 97.473 33.5568C97.3101 33.5947 97.1037 33.6136 96.8537 33.6136C96.4749 33.6136 96.1037 33.5322 95.7401 33.3693C95.3802 33.2064 95.081 32.9583 94.8423 32.625C94.6075 32.2917 94.4901 31.8712 94.4901 31.3636V22.6818ZM102.28 33.7045C101.727 33.7045 101.225 33.6004 100.774 33.392C100.323 33.1799 99.9654 32.875 99.7003 32.4773C99.4351 32.0758 99.3026 31.5909 99.3026 31.0227C99.3026 30.5227 99.401 30.1174 99.598 29.8068C99.795 29.4924 100.058 29.2462 100.388 29.0682C100.717 28.8902 101.081 28.7576 101.479 28.6705C101.88 28.5795 102.284 28.5076 102.689 28.4545C103.219 28.3864 103.649 28.3352 103.979 28.3011C104.312 28.2633 104.554 28.2008 104.706 28.1136C104.861 28.0265 104.939 27.875 104.939 27.6591V27.6136C104.939 27.053 104.786 26.6174 104.479 26.3068C104.176 25.9962 103.715 25.8409 103.098 25.8409C102.458 25.8409 101.956 25.9811 101.592 26.2614C101.229 26.5417 100.973 26.8409 100.825 27.1591L99.5526 26.7045C99.7798 26.1742 100.083 25.7614 100.462 25.4659C100.844 25.1667 101.261 24.9583 101.712 24.8409C102.166 24.7197 102.613 24.6591 103.053 24.6591C103.333 24.6591 103.655 24.6932 104.018 24.7614C104.386 24.8258 104.74 24.9602 105.081 25.1648C105.426 25.3693 105.712 25.678 105.939 26.0909C106.166 26.5038 106.28 27.0568 106.28 27.75V33.5H104.939V32.3182H104.871C104.78 32.5076 104.628 32.7102 104.416 32.9261C104.204 33.142 103.922 33.3258 103.57 33.4773C103.217 33.6288 102.787 33.7045 102.28 33.7045ZM102.484 32.5C103.015 32.5 103.462 32.3958 103.825 32.1875C104.193 31.9792 104.469 31.7102 104.655 31.3807C104.844 31.0511 104.939 30.7045 104.939 30.3409V29.1136C104.882 29.1818 104.757 29.2443 104.564 29.3011C104.375 29.3542 104.155 29.4015 103.905 29.4432C103.659 29.4811 103.418 29.5152 103.183 29.5455C102.952 29.572 102.765 29.5947 102.621 29.6136C102.272 29.6591 101.946 29.733 101.643 29.8352C101.344 29.9337 101.102 30.0833 100.916 30.2841C100.734 30.4811 100.643 30.75 100.643 31.0909C100.643 31.5568 100.816 31.9091 101.161 32.1477C101.509 32.3826 101.95 32.5 102.484 32.5ZM108.727 33.5V24.7727H110.068V33.5H108.727ZM109.409 23.3182C109.148 23.3182 108.922 23.2292 108.733 23.0511C108.547 22.8731 108.455 22.6591 108.455 22.4091C108.455 22.1591 108.547 21.9451 108.733 21.767C108.922 21.589 109.148 21.5 109.409 21.5C109.67 21.5 109.894 21.589 110.08 21.767C110.269 21.9451 110.364 22.1591 110.364 22.4091C110.364 22.6591 110.269 22.8731 110.08 23.0511C109.894 23.2292 109.67 23.3182 109.409 23.3182ZM113.865 21.8636V33.5H112.524V21.8636H113.865Z" fill="#004214"/>
<path d="M136 21.6863L136 33M136 33L141.431 27.5694M136 33L130.569 27.5694" stroke="#004214" stroke-width="1.5" stroke-linecap="round" stroke-linejoin="round"/>
</svg>
